<?xml version="1.0" encoding="UTF-8"?>
<svg width="194px" height="72px" viewBox="0 0 194 72" version="1.1" xmlns="http://www.w3.org/2000/svg" xmlns:xlink="http://www.w3.org/1999/xlink">
    <!-- Generator: Sketch 40.3 (33839) - http://www.bohemiancoding.com/sketch -->
    <title>Logo Black no margin_svg</title>
    <desc>Created with Sketch.</desc>
    <defs></defs>
    <g id="Logo" stroke="none" stroke-width="1" fill="none" fill-rule="evenodd">
        <g id="Logo-Black-no-margin" fill="#000000">
            <g id="Logo-Black-with-margin">
                <path d="M38.7714,72 L33.9634,72 L33.9634,68.646 L38.7714,68.646 C39.8214,68.646 40.6734,67.786 40.6734,66.726 L40.6734,5.272 C40.6734,4.214 39.8214,3.354 38.7714,3.354 L33.9634,3.354 L33.9634,0 L38.7714,0 C41.6534,0 43.9994,2.364 43.9994,5.272 L43.9994,66.726 C43.9994,69.634 41.6534,72 38.7714,72 Z M10.0368,72 L5.2268,72 C2.3448,72 0.0008,69.634 0.0008,66.726 L0.0008,5.272 C0.0008,2.364 2.3448,0 5.2268,0 L10.0368,0 L10.0368,3.354 L5.2268,3.354 C4.1788,3.354 3.3248,4.214 3.3248,5.272 L3.3248,66.726 C3.3248,67.786 4.1788,68.646 5.2268,68.646 L10.0368,68.646 L10.0368,72 Z" id="Combined-Shape"></path>
                <polygon id="Fill-5" points="80.9098 49.1276 75.0538 57.7816 73.8398 57.9576 67.3158 48.8236 67.3238 65.5356 63.9938 65.5376 63.9798 41.9116 66.0258 41.9096 74.3218 53.5776 82.1858 41.8996 84.2678 41.8976 84.2818 65.5256 80.9178 65.5276"></polygon>
                <path d="M95.025,53.7742 C95.027,55.5582 95.357,57.1682 96.017,58.6022 C96.675,60.0402 97.589,61.1542 98.757,61.9542 C99.925,62.7542 101.239,63.1522 102.697,63.1522 C104.199,63.1502 105.543,62.7382 106.733,61.9142 C107.925,61.0922 108.853,59.9522 109.523,58.4902 C110.191,57.0322 110.529,55.3862 110.527,53.5562 C110.527,51.7722 110.195,50.1682 109.535,48.7442 C108.877,47.3222 107.967,46.2102 106.811,45.4122 C105.653,44.6122 104.349,44.2122 102.891,44.2142 C101.389,44.2142 100.035,44.6282 98.835,45.4502 C97.633,46.2742 96.697,47.4102 96.029,48.8582 C95.359,50.3062 95.025,51.9442 95.025,53.7742 M102.819,41.3322 C104.971,41.3302 106.901,41.8562 108.615,42.9102 C110.323,43.9602 111.659,45.4142 112.621,47.2662 C113.581,49.1182 114.061,51.2142 114.063,53.5542 C114.065,55.8942 113.581,58.0022 112.611,59.8782 C111.641,61.7562 110.297,63.2382 108.573,64.3282 C106.851,65.4182 104.903,65.9742 102.733,66.0002 C100.605,66.0002 98.689,65.4822 96.991,64.4402 C95.293,63.3982 93.961,61.9542 93.001,60.1002 C92.039,58.2462 91.559,56.1522 91.557,53.8122 C91.557,51.4722 92.041,49.3642 93.009,47.4862 C93.981,45.6122 95.319,44.1262 97.031,43.0382 C98.739,41.9462 100.669,41.3782 102.819,41.3322" id="Fill-7"></path>
                <path d="M129.7058,54.6564 L124.6778,54.6604 L124.6818,62.7544 L129.3618,62.7524 C130.9798,62.7524 132.2758,62.4344 133.2458,61.7944 C134.2178,61.1564 134.7038,60.1684 134.7018,58.8224 C134.7018,57.4324 134.2598,56.3924 133.3818,55.6964 C132.5018,55.0024 131.2778,54.6564 129.7058,54.6564 M128.4858,44.6864 L124.6698,44.6884 L124.6758,51.9484 L127.8998,51.9464 C129.5658,51.9244 130.9058,51.6224 131.9218,51.0424 C132.9398,50.4624 133.4478,49.5464 133.4458,48.2944 C133.4458,46.9284 133.0298,45.9844 132.1958,45.4664 C131.3638,44.9444 130.1258,44.6844 128.4858,44.6864 M129.5018,65.4984 L121.3538,65.5024 L121.3398,41.8744 L128.7618,41.8724 C134.1698,41.8684 136.8758,43.9964 136.8778,48.2604 C136.8798,49.9964 135.8758,51.5124 133.8658,52.8144 C135.1838,53.3224 136.2178,54.0744 136.9718,55.0684 C137.7218,56.0664 138.0998,57.2924 138.0998,58.7524 C138.1018,61.0004 137.3218,62.6844 135.7618,63.8064 C134.2018,64.9344 132.1158,65.4964 129.5018,65.4984" id="Fill-9"></path>
                <polygon id="Fill-11" points="148.3536 41.8592 148.3676 65.4852 145.0376 65.4872 145.0236 41.8612"></polygon>
                <polygon id="Fill-13" points="160.7112 62.873 171.3572 62.865 171.7752 65.471 157.3832 65.481 157.3692 41.853 160.6992 41.853"></polygon>
                <polygon id="Fill-15" points="192.5472 62.8534 192.9992 65.4594 178.0192 65.4674 178.0052 41.8414 191.2872 41.8334 191.7392 44.4034 181.3352 44.4114 181.3412 52.1574 189.3512 52.1534 189.8032 54.7234 181.3432 54.7294 181.3472 62.8614"></polygon>
                <path d="M63.4154,28.6174 L64.4234,24.9714 C65.2754,25.4094 66.2474,25.7994 67.3354,26.1334 C68.4214,26.4714 69.4154,26.6374 70.3174,26.6374 C71.7034,26.6374 72.7554,26.4174 73.4734,25.9774 C74.1894,25.5394 74.5494,24.9014 74.5494,24.0674 C74.5494,23.4894 74.2654,22.9594 73.6974,22.4854 C73.1314,22.0114 72.2594,21.4494 71.0794,20.8014 L70.0414,20.1754 C68.4894,19.2494 67.2594,18.4514 66.3454,17.7774 C65.4334,17.1054 64.6474,16.3134 63.9874,15.3974 C63.3294,14.4834 62.9994,13.4574 62.9994,12.3234 C62.9994,11.1174 63.3234,10.0354 63.9714,9.0734 C64.6194,8.1134 65.5494,7.3614 66.7634,6.8154 C67.9774,6.2714 69.4274,5.9994 71.1154,5.9994 C73.1034,5.9994 75.3214,6.5894 77.7734,7.7714 L76.2834,11.3834 C75.3354,10.9214 74.4734,10.5634 73.6974,10.3074 C72.9234,10.0534 72.0854,9.9254 71.1854,9.9254 C70.1434,9.9254 69.2934,10.1294 68.6354,10.5334 C67.9774,10.9394 67.6474,11.5354 67.6474,12.3234 C67.6474,12.9954 67.9074,13.5554 68.4274,14.0074 C68.9474,14.4594 69.7974,15.0334 70.9774,15.7274 L72.0854,16.3534 L73.0914,16.9434 C74.4554,17.7314 75.5414,18.4194 76.3514,19.0114 C77.1594,19.6034 77.8374,20.3214 78.3814,21.1654 C78.9234,22.0114 79.1954,23.0014 79.1954,24.1374 C79.1954,25.4094 78.8534,26.5334 78.1714,27.5074 C77.4894,28.4794 76.4834,29.2434 75.1554,29.7994 C73.8254,30.3554 72.2374,30.6334 70.3874,30.6334 C69.4154,30.6334 68.2074,30.4194 66.7634,29.9914 C65.3174,29.5614 64.2014,29.1054 63.4154,28.6174" id="Fill-17"></path>
                <polygon id="Fill-19" points="90.7774 14.3738 90.7774 30.1818 86.3034 30.1818 86.3034 6.5558 90.7774 6.5558 101.6994 22.3298 101.6994 6.5558 106.2094 6.5558 106.2094 30.1818 101.6994 30.1818"></polygon>
                <path d="M120.7062,20.974 L126.9482,20.974 L123.7922,12.74 L120.7062,20.974 Z M112.8002,30.182 L121.9882,6.556 L125.8042,6.556 L134.9582,29.904 L130.4502,30.53 L128.3342,24.622 L119.3862,24.622 L117.3062,30.182 L112.8002,30.182 Z" id="Fill-21"></path>
                <path d="M148.7956,10.3074 L146.0216,10.3074 L146.0216,18.2294 L148.8656,18.2294 C150.2516,18.2294 151.3496,17.9114 152.1596,17.2734 C152.9676,16.6374 153.4196,15.6814 153.5116,14.4074 C153.5116,12.9494 153.1136,11.8994 152.3156,11.2634 C151.5176,10.6274 150.3436,10.3074 148.7956,10.3074 L148.7956,10.3074 Z M146.0216,21.9474 L146.0216,30.1814 L141.5476,30.1814 L141.5476,6.5554 L148.9356,6.5554 C151.7076,6.5554 153.9576,7.1754 155.6796,8.4154 C157.4016,9.6534 158.2636,11.5594 158.2636,14.1294 C158.2636,15.8434 157.8176,17.2914 156.9276,18.4714 C156.0376,19.6534 154.8656,20.5294 153.4076,21.0954 C151.9516,21.6634 150.3576,21.9474 148.6236,21.9474 L146.0216,21.9474 Z" id="Fill-23"></path>
                <path d="M172.6196,10.3074 L169.8456,10.3074 L169.8456,18.2294 L172.6896,18.2294 C174.0756,18.2294 175.1736,17.9114 175.9836,17.2734 C176.7916,16.6374 177.2436,15.6814 177.3356,14.4074 C177.3356,12.9494 176.9376,11.8994 176.1396,11.2634 C175.3416,10.6274 174.1676,10.3074 172.6196,10.3074 L172.6196,10.3074 Z M169.8456,21.9474 L169.8456,30.1814 L165.3716,30.1814 L165.3716,6.5554 L172.7596,6.5554 C175.5316,6.5554 177.7816,7.1754 179.5036,8.4154 C181.2256,9.6534 182.0876,11.5594 182.0876,14.1294 C182.0876,15.8434 181.6416,17.2914 180.7516,18.4714 C179.8616,19.6534 178.6896,20.5294 177.2316,21.0954 C175.7756,21.6634 174.1816,21.9474 172.4476,21.9474 L169.8456,21.9474 Z" id="Fill-25"></path>
            </g>
        </g>
    </g>
</svg>