<?xml version="1.0" encoding="UTF-8"?>
<svg width="1036px" height="202px" viewBox="0 0 1036 202" version="1.1" xmlns="http://www.w3.org/2000/svg" xmlns:xlink="http://www.w3.org/1999/xlink">
    <!-- Generator: Sketch 46.2 (44496) - http://www.bohemiancoding.com/sketch -->
    <title>black</title>
    <desc>Created with Sketch.</desc>
    <defs>
        <polygon id="path-1" points="0.3786 147.2518 111.1412 147.2518 111.1412 0.39675 0.3786 0.39675"></polygon>
        <linearGradient x1="49.976%" y1="0.05%" x2="49.976%" y2="99.609%" id="linearGradient-3">
            <stop stop-color="#A0509A" offset="0%"></stop>
            <stop stop-color="#2A91FF" offset="100%"></stop>
        </linearGradient>
        <linearGradient x1="49.888%" y1="0.05%" x2="49.888%" y2="100.069%" id="linearGradient-4">
            <stop stop-color="#009652" offset="0%"></stop>
            <stop stop-color="#00FFFF" offset="100%"></stop>
        </linearGradient>
    </defs>
    <g id="new_phones_lps" stroke="none" stroke-width="1" fill="none" fill-rule="evenodd">
        <g id="black">
            <path d="M146.794645,64.1459579 C148.148212,59.335241 146.523964,54.1946327 142.629695,50.9642366 C138.735426,47.7338406 133.276639,46.9988901 128.632089,49.0796517 C123.987539,51.1604133 120.998654,55.6799269 120.96789,60.6687408 L120.869372,60.7871142 L104.007714,120.018177 L86.0926757,63.5762861 L86.0017364,63.4949045 C84.4433317,58.5712572 79.9969738,55.0513086 74.7404222,54.5799118 L74.7404222,54.4689368 L73.5278985,54.4689368 L73.5278985,54.4615385 L72.5503012,54.4615385 L72.5503012,54.5577168 C66.9484558,54.9576187 62.2362459,58.810091 60.8494471,64.1237629 L60.7812427,64.2051445 L43.048083,120.018177 L25.5953195,60.0916707 L25.4968019,60.0028907 C23.7455343,54.7621322 18.74539,51.2114657 13.0987467,51.1988731 C9.1279638,51.2045945 5.37353551,52.9658919 2.88797965,55.9890025 C0.402423785,59.0121131 -0.546723795,62.9716407 0.306621287,66.7575698 L0.291464741,66.7871632 L0.867413516,68.5405683 C0.928039703,68.688535 0.958352796,68.8586967 1.01897898,69.0140617 L27.1261307,148.575747 L27.3534789,148.812494 C29.2951484,154.284354 34.3436117,158.135721 40.2517001,158.652278 L40.2517001,158.785448 L42.4266646,158.785448 L42.4266646,158.711465 C48.7866362,158.377507 54.2460149,154.178848 56.0675566,148.220627 L56.1812307,148.11705 L73.0807803,94.9230279 L90.4198698,147.93949 L90.510809,148.02827 C92.222819,153.885414 97.4525091,158.10864 103.666692,158.652278 L103.666692,158.785448 L105.849234,158.785448 L105.849234,158.711465 C111.976828,158.393012 117.295786,154.481693 119.30067,148.819892 L119.376452,148.760706 L146.302057,67.6601666 L146.264166,67.5639882 C146.574875,66.4690348 146.794645,65.344488 146.794645,64.1459579 M304.33937,51.5613915 L304.33937,51.4134248 L302.141671,51.4134248 L302.141671,51.4874081 C295.63219,51.8551561 290.541341,57.107181 290.524178,63.4727095 L290.524178,147.502989 L290.584804,147.502989 C290.907748,153.907255 296.316375,158.940203 302.884342,158.948212 C309.492596,158.948212 314.842857,153.880353 315.176301,147.502989 L315.259662,147.502989 L315.259662,63.3617344 L315.229349,63.3617344 C315.163659,57.3099552 310.497491,52.2505414 304.33937,51.5539931 M302.89192,33.0951494 C309.990299,33.0951494 315.744671,27.4774089 315.744671,20.5475747 C315.744671,13.6177406 309.990299,8 302.89192,8 C295.793541,8 290.039168,13.6177406 290.039168,20.5475747 C290.039168,27.4774089 295.793541,33.0951494 302.89192,33.0951494 M556.013828,54.6686918 L555.930467,54.4911318 L555.778902,54.4911318 C553.814368,52.794101 551.344142,51.7568656 548.731108,51.5317981 L548.731108,51.4282215 L546.533408,51.4282215 L546.533408,51.5391965 C540.168563,52.0723221 535.276491,57.2657669 535.264516,63.5023028 L535.264516,110.348555 C535.264516,124.730916 529.224632,136.168741 511.468737,136.168741 C493.9023,136.346301 488.8097,124.53856 488.8097,109.608721 L488.8097,63.2063694 L488.771809,63.1397844 C488.61394,57.0207565 483.772017,51.9943842 477.525651,51.4652131 L477.525651,51.3542381 L475.343108,51.3542381 L475.343108,51.4652131 C468.974076,51.9983591 464.078628,57.1951079 464.066638,63.4357178 C464.066638,63.5097011 464.089372,63.5688878 464.089372,63.6428711 L464.066638,63.6798628 L464.066638,115.690152 C464.066638,133.394366 470.493013,158.652278 504.481569,158.837237 C523.17717,159.022195 532.422663,150.173787 536.765014,142.235375 L536.765014,147.31803 C536.765014,147.429005 536.734701,147.532582 536.734701,147.643557 C536.734701,153.915547 541.942815,159 548.36735,159 C554.791885,159 560,153.915547 560,147.643557 L560,63.5023028 C560,60.0028907 558.446454,56.8733954 556.013828,54.6686918 M238.408392,120.121754 C233.687128,129.33268 224.623513,136.346301 210.846212,136.346301 C188.55851,136.346301 179.29786,118.087212 179.29786,105.554434 L179.29786,105.369476 C179.29786,89.699804 190.634957,73.8451739 210.649177,73.8451739 C225.570797,73.8451739 235.202782,82.1387065 239.545133,91.7343459 C241.62158,96.1437531 242.568864,101.13023 242.379407,105.924351 C242.000493,110.896031 240.863752,115.690152 238.408392,120.121754 M266.925435,146.60779 L266.925435,63.0066144 L266.849652,62.8882411 C266.518073,56.3655456 260.919268,51.2908204 254.231731,51.4514292 C247.544194,51.612038 242.207758,56.9493854 242.205107,63.4801078 C242.205107,63.5688878 242.227842,63.6428711 242.23542,63.7316512 L242.18995,63.8056345 L242.18995,69.2360118 C237.658143,61.1200392 226.139167,51.3468398 207.25411,51.3468398 C178.168697,51.3468398 154.562375,73.1053405 154.562375,104.999559 C154.562375,133.579324 174.015803,158.837237 207.25411,158.837237 C221.789238,158.837237 235.574118,152.933366 242.18995,141.133023 L242.18995,146.511612 C242.182372,146.644782 242.152059,146.755757 242.152059,146.881529 C242.152059,153.207104 247.130984,158.33415 253.458843,158.889025 L253.458843,158.992602 L255.641385,158.992602 L255.641385,158.889025 C262.031351,158.355778 266.943683,153.142509 266.955748,146.881529 C266.955748,146.792749 266.933013,146.703969 266.925435,146.60779" id="Shape" fill="#000000" fill-rule="nonzero"></path>
            <g id="Group" transform="translate(341.000000, 54.000000)">
                <g id="Clipped">
                    <mask id="mask-2" fill="white">
                        <use xlink:href="#path-1"></use>
                    </mask>
                    <g id="a"></g>
                    <path d="M86.5448667,55.33055 C86.5448667,72.2652 73.9717333,87.13115 55.1986667,87.13115 C46.823718,87.1592311 38.782783,83.8417318 32.8548,77.9126 C27.2198667,72.2652 23.8449333,64.3679 23.8449333,55.5193 C23.8449333,46.4895 27.2198667,38.3959 32.6664667,32.75605 C38.5031295,26.6690235 46.5872575,23.2654131 55.0103333,23.34875 C75.8475333,23.34875 86.5448667,40.2834 86.5448667,55.1418 L86.5448667,55.33055 L86.5448667,55.33055 Z M13.7879333,147.24425 C20.093505,146.685276 24.9306828,141.395192 24.9372667,135.051 L24.9749333,135.0057 L24.9749333,93.1485 C29.1032,99.7321 39.9888667,110.08315 60.0802667,110.08315 C90.304,110.08315 111.1412,85.43995 111.1412,56.08555 C111.1412,31.0573 95.9314,0.39675 59.8919333,0.39675 C42.8063333,0.39675 30.7906667,8.29405 23.4682667,18.6451 L23.4682667,12.2276 C23.4682667,12.15965 23.4908667,12.0917 23.4908667,12.0162 C23.6448068,5.63648271 18.609234,0.339630745 12.2436,0.18535 C5.87796597,0.0310692551 0.592806836,5.07778271 0.438866667,11.4575 L0.3786,11.5481 L0.3786,135.3681 L0.416266667,135.4436 C0.619666667,141.7101 5.4636,146.73085 11.6258667,147.2518 L13.7879333,147.24425 L13.7879333,147.24425 Z" id="Shape" fill="#000000" fill-rule="nonzero" mask="url(#mask-2)"></path>
                </g>
            </g>
            <path d="M836.624248,158.775826 C843.596428,158.775826 849.248496,153.088138 849.248496,146.072019 C849.248496,139.055901 843.596428,133.368213 836.624248,133.368213 C829.652068,133.368213 824,139.055901 824,146.072019 C824,153.088138 829.652068,158.775826 836.624248,158.775826 M910.464191,72.6506089 L898.085579,72.6506089 L898.085579,125.945175 C898.085579,129.488159 898.934143,132.012441 900.631271,133.525512 C902.320955,135.023603 905.253711,135.787629 909.422095,135.787629 L911.28298,135.787629 C917.451637,136.060922 922.313012,141.173049 922.313012,147.386594 C922.313012,153.600139 917.451637,158.712265 911.28298,158.985559 L911.208545,158.985559 L910.985239,158.993049 L908.082257,158.993049 C897.006266,158.993049 888.468522,156.431315 882.476471,151.322826 C876.484419,146.206848 873.484671,137.750127 873.484671,125.945175 L873.484671,72.6580993 L861.12839,72.6580993 L861.12839,72.6506089 C855.035529,72.4927863 850.177864,67.4770616 850.177864,61.3437716 C850.177864,55.2104816 855.035529,50.1947568 861.12839,50.0369343 L873.484671,50.0369343 L873.484671,35.2882343 L873.559107,35.2882343 C873.591995,28.4686169 879.112426,22.9670536 885.889335,23.0001485 C892.666244,23.0332434 898.133354,28.5884641 898.100466,35.4080815 L898.085579,35.797585 L898.085579,50.0369343 L910.464191,50.0369343 C914.547387,49.9311678 918.366212,52.0628074 920.438755,55.6046626 C922.511298,59.1465178 922.511298,63.5410254 920.438755,67.0828805 C918.366212,70.6247357 914.547387,72.7563754 910.464191,72.6506089 M1034.97233,67.7443628 L1000.61293,149.742341 L1000.60549,149.742341 C998.291217,155.36522 992.829291,159.022889 986.78137,158.999892 C980.733448,158.976895 975.299147,155.277793 973.027166,149.637475 L938.563564,67.946605 C936.044009,61.4626958 939.125702,54.1401903 945.506466,51.4493601 C951.88723,48.7585298 959.235976,51.6824183 962.062828,58.036737 L962.211699,58.4187501 L962.226586,58.4562023 L986.805163,122.731771 L1011.35397,58.0741893 L1011.36141,58.0741893 C1013.01585,53.7421822 1016.8671,50.6477408 1021.4314,49.9830534 C1025.9957,49.3183661 1030.56071,51.1871693 1033.36768,54.8694734 C1036.17465,58.5517774 1036.78549,63.4728928 1034.96488,67.7368724" id="Shape" fill="#000000" fill-rule="nonzero"></path>
            <g id="Group" transform="translate(602.000000, 0.000000)" fill-rule="nonzero">
                <path d="M131.761724,18.333 C127.350275,10.697322 120.264803,4.97262492 111.878034,2.268 C111.651483,2.268 111.651483,2.268 111.424931,2.0412 L111.190828,2.0412 C107.641927,0.869085922 103.932446,0.256962854 100.195517,0.2268 C94.0182069,0.2268 87.8333448,1.8144 82.1091379,4.9896 L18.9087586,41.06592 C12.8237932,44.4657206 7.8829754,49.5961212 4.71151724,55.80792 L4.71151724,56.03472 C4.71151724,56.26152 4.48496552,56.26152 4.48496552,56.48832 C2.09269087,61.4419292 0.841090743,66.8697511 0.82237931,72.37188 L0.82237931,145.65852 C0.82237931,151.78212 2.42334483,157.90572 5.63282759,163.57572 C10.0434402,171.238621 17.1447772,176.984126 25.5542759,179.69364 C25.7808276,179.69364 25.7808276,179.69364 26.0073793,179.92044 L26.233931,179.92044 C29.6699655,181.05444 33.5591034,181.73484 37.2292414,181.73484 C43.4141034,181.73484 49.5914138,180.14724 55.3156207,176.97204 L78.6957586,163.62108 C83.1094404,171.262515 90.2009279,176.990418 98.5945517,179.69364 C98.8211034,179.69364 98.8211034,179.69364 99.0476552,179.92044 L99.2817586,179.92044 C102.717793,181.05444 106.606931,181.73484 110.277069,181.73484 C116.454379,181.73484 122.639241,180.14724 128.363448,176.97204 L191.563828,140.89572 C197.649887,137.493906 202.590821,132.360754 205.761069,126.14616 C205.761069,125.91936 205.761069,125.69256 205.987621,125.46576 C208.275793,120.70296 209.650207,115.25976 209.650207,109.58976 L209.650207,36.29556 C209.62598,30.0042029 207.968274,23.8272353 204.839759,18.3708 C200.424469,10.7121435 193.320579,4.97214096 184.910759,2.268 C184.684207,2.268 184.684207,2.268 184.457655,2.0412 L184.231103,2.0412 C180.68261,0.866518174 176.973119,0.251842949 173.235793,0.21924 C167.050931,0.21924 160.873621,1.80684 155.149414,4.98204 L131.761724,18.333 Z" id="Shape" fill="#FFFFFF"></path>
                <path d="M132.932241,125.46576 C135.220414,120.70296 136.594828,115.25976 136.594828,109.58976 L136.594828,36.29556 C136.5729,30.0048818 134.917809,23.8279583 131.791931,18.3708 C127.378466,10.7135997 120.277495,4.97378022 111.870483,2.268 C111.643931,2.268 111.643931,2.268 111.409828,2.0412 L111.183276,2.0412 C107.634375,0.869085922 103.924894,0.256962854 100.187966,0.2268 C94.0031034,0.2268 87.8257931,1.8144 82.1015862,4.9896 L18.9012069,41.06592 C12.8162414,44.4657206 7.87542368,49.5961212 4.70396552,55.80792 L4.70396552,56.03472 C4.70396552,56.26152 4.47741379,56.26152 4.47741379,56.48832 C2.08513914,61.4419292 0.833539019,66.8697511 0.814827586,72.37188 L0.814827586,145.65852 C0.814827586,151.78212 2.4157931,157.90572 5.61772414,163.57572 C10.0283368,171.238621 17.1296738,176.984126 25.5391724,179.69364 C25.7657241,179.69364 25.7657241,179.69364 25.9922759,179.92044 L26.2263793,179.92044 C29.6624138,181.05444 33.5515517,181.73484 37.2216897,181.73484 C43.399,181.73484 49.5838621,180.14724 55.308069,176.97204 L118.508448,140.89572 C124.594508,137.493906 129.535441,132.360754 132.70569,126.14616 C132.70569,125.91936 132.932241,125.69256 132.932241,125.46576 L132.932241,125.46576 Z" id="Shape" fill="url(#linearGradient-3)" style="mix-blend-mode: multiply;"></path>
                <path d="M209.642655,109.5822 L209.642655,36.30312 C209.618429,30.0117629 207.960723,23.8347953 204.832207,18.37836 C200.420168,10.7183093 193.319014,4.97564714 184.910759,2.268 C184.684207,2.268 184.684207,2.268 184.457655,2.0412 C180.787517,0.9072 176.898379,0.2268 173.235793,0.2268 C167.050931,0.2268 160.866069,1.8144 155.141862,4.9896 L91.9490345,41.06592 C85.864069,44.4657206 80.9232513,49.5961212 77.7517931,55.80792 C77.7517931,56.26152 77.5252414,56.26152 77.5252414,56.48832 C75.1303574,61.44132 73.8761701,66.8691705 73.8551034,72.37188 L73.8551034,145.65852 C73.8551034,151.78212 75.456069,157.90572 78.6655517,163.57572 C83.0761644,171.238621 90.1775014,176.984126 98.587,179.69364 C98.8135517,179.69364 98.8135517,179.69364 99.0401034,179.92044 C102.710241,181.05444 106.599379,181.73484 110.261966,181.73484 C116.446828,181.73484 122.63169,180.14724 128.355897,176.97204 L191.548724,140.89572 C197.634784,137.493906 202.575717,132.360754 205.745966,126.14616 C205.745966,125.91936 205.745966,125.69256 205.972517,125.46576 C208.268241,120.70296 209.642655,115.25976 209.642655,109.58976 L209.642655,109.5822 Z" id="Shape" fill="url(#linearGradient-4)" style="mix-blend-mode: multiply;"></path>
            </g>
        </g>
    </g>
</svg>