<?xml version="1.0" encoding="utf-8"?>
<!-- Generator: Adobe Illustrator 16.0.0, SVG Export Plug-In . SVG Version: 6.00 Build 0)  -->
<!DOCTYPE svg PUBLIC "-//W3C//DTD SVG 1.1//EN" "http://www.w3.org/Graphics/SVG/1.1/DTD/svg11.dtd">
<svg version="1.1" id="Layer_1" xmlns="http://www.w3.org/2000/svg" xmlns:xlink="http://www.w3.org/1999/xlink" x="0px" y="0px"
	 width="1915.9px" height="896px" viewBox="0 0 1915.9 896" enable-background="new 0 0 1915.9 896" xml:space="preserve">
<g opacity="0.8">
	<defs>
		<filter id="Adobe_OpacityMaskFilter" filterUnits="userSpaceOnUse" x="-17.14" y="260.164" width="1865.072" height="508.607">
			<feColorMatrix  type="matrix" values="1 0 0 0 0  0 1 0 0 0  0 0 1 0 0  0 0 0 1 0"/>
		</filter>
	</defs>
	<mask maskUnits="userSpaceOnUse" x="-17.14" y="260.164" width="1865.072" height="508.607" id="SVGID_1_">
		<g filter="url(#Adobe_OpacityMaskFilter)">
			
				<linearGradient id="rectangle_2_" gradientUnits="userSpaceOnUse" x1="719.0005" y1="334.9995" x2="719.0005" y2="61" gradientTransform="matrix(1 0 0 1 168 285)">
				<stop  offset="0.0206" style="stop-color:#FFFFFF;stop-opacity:0"/>
				<stop  offset="0.5091" style="stop-color:#FFFFFF;stop-opacity:0.9"/>
				<stop  offset="1" style="stop-color:#FFFFFF"/>
			</linearGradient>
			<rect id="rectangle_1_" x="128" y="346" fill="url(#rectangle_2_)" width="1518" height="274"/>
		</g>
	</mask>
	<g mask="url(#SVGID_1_)">
		<g>
			<g>
				<defs>
					<path id="SVGID_2_" d="M1464.219,569.169c-3.438,0.035-39.115,13.601-54.732,13.601c-15.615,0-43.342-37.113-57.723-37.113
						c-14.38,0,6.483,0.834-38.083,0.238c-44.562-0.596-164.729-179.948-175.681-177.146c-4.237,1.084-31.593,48.775-42.569,52.039
						c-6.132,1.822-17.479,10.212-31.092,21.307c69.011-0.851,37.277,67.568,23.601,79.045
						c-25.16,21.112-112.738-5.369-122.854-5.383c-10.107,0-9.199-4.306-19.402-4.306c-10.205,0-56.088,45.731-63.991,45.223
						c-7.905-0.511-7.753-6.518-19.515-6.537c-4.767-0.008-16.527,9.437-35.258,28.287c-10.829-6.647-16.354-9.418-16.354-9.418
						c-3.438,0.035-39.114,13.685-54.732,13.685c-15.616,0-43.341-37.073-57.722-37.073c-14.38,0,6.482,0.854-38.083,0.262
						c-44.563-0.596-104.8-36.136-111.681-61.778c-5.042-18.791-36.948,27.354-62.861,27.354
						c-25.914,0-80.411-106.535-103.654-106.535c-17.723,0-60.289,110.839-70.399,110.839c-10.108,0-9.199-4.304-19.402-4.304
						c-10.205,0-56.087,45.732-63.992,45.223c-7.905-0.511-7.751-6.351-19.513-6.37c-7.843-0.013-34.581,25.7-80.216,76.7h653.654
						h113.854h653.653C1493.484,584,1464.219,569.169,1464.219,569.169z"/>
				</defs>
				<clipPath id="SVGID_3_">
					<use xlink:href="#SVGID_2_"  overflow="visible"/>
				</clipPath>
				<g clip-path="url(#SVGID_3_)">
					<polygon fill="#FFFFFF" points="1072.177,553.224 1120.732,561.805 1095.842,517.854 1047.287,509.273 					"/>
					<polygon fill="#FFFFFF" points="1022.889,466.195 974.617,457.666 999.014,500.744 1047.287,509.273 					"/>
					<polygon fill="#FFFFFF" points="1121.5,640.295 1170.055,648.876 1145.164,604.926 1096.609,596.345 					"/>
					<polygon fill="#FFFFFF" points="1072.212,553.268 1023.939,544.736 1048.337,587.815 1096.609,596.345 					"/>
					<polygon fill="#FFFFFF" points="1218.292,657.363 1266.848,665.944 1241.957,621.994 1193.402,613.413 					"/>
					<polygon fill="#FFFFFF" points="1169.004,570.336 1120.732,561.805 1145.129,604.884 1193.402,613.413 					"/>
					<polygon fill="#FFFFFF" points="1169.01,570.348 1217.564,578.929 1192.674,534.979 1144.119,526.396 					"/>
					<polygon fill="#FFFFFF" points="1119.723,483.32 1071.449,474.789 1095.848,517.868 1144.119,526.396 					"/>
					<polygon fill="#FFFFFF" points="973.684,379.292 1022.239,387.873 997.349,343.923 948.794,335.342 					"/>
					<polygon fill="#FFFFFF" points="924.396,292.264 876.124,283.734 900.521,326.812 948.794,335.342 					"/>
					<polygon fill="#FFFFFF" points="1023.007,466.363 1071.562,474.944 1046.672,430.994 998.117,422.413 					"/>
					<polygon fill="#FFFFFF" points="973.719,379.336 925.447,370.805 949.844,413.884 998.117,422.413 					"/>
					<polygon fill="#FFFFFF" points="1119.799,483.432 1168.354,492.013 1143.464,448.062 1094.909,439.481 					"/>
					<polygon fill="#FFFFFF" points="1070.512,396.404 1022.239,387.873 1046.637,430.952 1094.909,439.481 					"/>
					<polygon fill="#FFFFFF" points="1070.518,396.416 1119.072,404.997 1094.182,361.047 1045.627,352.466 					"/>
					<polygon fill="#FFFFFF" points="1021.229,309.389 972.957,300.857 997.354,343.938 1045.627,352.466 					"/>
					<polygon fill="#FFFFFF" points="1167.299,413.465 1215.854,422.046 1190.963,378.096 1142.408,369.515 					"/>
					<polygon fill="#FFFFFF" points="1118.011,326.438 1069.738,317.906 1094.136,360.985 1142.408,369.515 					"/>
					<polygon fill="#FFFFFF" points="1216.621,500.536 1265.176,509.118 1240.285,465.167 1191.73,456.586 					"/>
					<polygon fill="#FFFFFF" points="1167.334,413.509 1119.061,404.978 1143.459,448.057 1191.73,456.586 					"/>
					<polygon fill="#FFFFFF" points="1313.414,517.604 1361.969,526.188 1337.078,482.235 1288.523,473.654 					"/>
					<polygon fill="#FFFFFF" points="1264.126,430.577 1215.854,422.046 1240.251,465.125 1288.523,473.654 					"/>
					<polygon fill="#FFFFFF" points="1264.131,430.589 1312.688,439.17 1287.796,395.22 1239.241,386.639 					"/>
					<polygon fill="#FFFFFF" points="1214.844,343.561 1166.571,335.031 1190.969,378.109 1239.241,386.639 					"/>
					<polygon fill="#FFFFFF" points="878.48,519.065 927.035,527.646 902.145,483.696 853.59,475.115 					"/>
					<polygon fill="#FFFFFF" points="829.192,432.037 780.92,423.508 805.317,466.586 853.59,475.115 					"/>
					<polygon fill="#FFFFFF" points="927.803,606.138 976.357,614.718 951.467,570.769 902.912,562.188 					"/>
					<polygon fill="#FFFFFF" points="878.516,519.11 830.242,510.579 854.641,553.657 902.912,562.188 					"/>
					<polygon fill="#FFFFFF" points="1024.596,623.206 1073.15,631.786 1048.26,587.837 999.705,579.255 					"/>
					<polygon fill="#FFFFFF" points="975.308,536.179 927.035,527.646 951.433,570.726 999.705,579.255 					"/>
					<polygon fill="#FFFFFF" points="975.312,536.19 1023.868,544.771 998.979,500.821 950.423,492.239 					"/>
					<polygon fill="#FFFFFF" points="926.025,449.162 877.753,440.631 902.15,483.71 950.423,492.239 					"/>
					<polygon fill="#FFFFFF" points="734.074,571.868 782.629,580.45 757.738,536.499 709.184,527.918 					"/>
					<polygon fill="#FFFFFF" points="684.787,484.84 636.514,476.311 660.912,519.389 709.184,527.918 					"/>
					<polygon fill="#FFFFFF" points="783.396,658.94 831.952,667.521 807.062,623.571 758.507,614.989 					"/>
					<polygon fill="#FFFFFF" points="734.109,571.913 685.837,563.382 710.234,606.46 758.507,614.989 					"/>
					<polygon fill="#FFFFFF" points="880.189,676.009 928.744,684.589 903.854,640.64 855.299,632.058 					"/>
					<polygon fill="#FFFFFF" points="830.902,588.981 782.629,580.45 807.027,623.528 855.299,632.058 					"/>
					<polygon fill="#FFFFFF" points="830.907,588.993 879.463,597.573 854.572,553.624 806.018,545.042 					"/>
					<polygon fill="#FFFFFF" points="781.619,501.964 733.348,493.434 757.744,536.513 806.018,545.042 					"/>
					<polygon fill="#FFFFFF" points="1265.914,587.571 1314.47,596.151 1289.579,552.202 1241.024,543.62 					"/>
					<polygon fill="#FFFFFF" points="1216.627,500.542 1168.354,492.013 1192.752,535.091 1241.024,543.62 					"/>
					<polygon fill="#FFFFFF" points="1315.237,674.642 1363.793,683.224 1338.902,639.271 1290.348,630.692 					"/>
					<polygon fill="#FFFFFF" points="1265.949,587.614 1217.678,579.083 1242.074,622.163 1290.348,630.692 					"/>
					<polygon fill="#FFFFFF" points="1412.029,691.71 1460.585,700.292 1435.694,656.341 1387.14,647.761 					"/>
					<polygon fill="#FFFFFF" points="1362.742,604.683 1314.47,596.151 1338.867,639.231 1387.14,647.761 					"/>
					<polygon fill="#FFFFFF" points="1362.748,604.694 1411.303,613.276 1386.412,569.325 1337.857,560.745 					"/>
					<polygon fill="#FFFFFF" points="1313.46,517.667 1265.188,509.136 1289.585,552.216 1337.857,560.745 					"/>
					<polygon fill="#FFFFFF" points="1360.98,447.721 1409.535,456.302 1384.645,412.352 1336.09,403.771 					"/>
					<polygon fill="#FFFFFF" points="1311.692,360.693 1263.42,352.162 1287.817,395.241 1336.09,403.771 					"/>
					<polygon fill="#FFFFFF" points="1410.303,534.793 1458.857,543.375 1433.967,499.423 1385.412,490.842 					"/>
					<polygon fill="#FFFFFF" points="1361.016,447.765 1312.742,439.233 1337.141,482.312 1385.412,490.842 					"/>
					<polygon fill="#FFFFFF" points="1507.096,551.861 1555.65,560.443 1530.76,516.492 1482.205,507.91 					"/>
					<polygon fill="#FFFFFF" points="1457.808,464.833 1409.535,456.302 1433.933,499.381 1482.205,507.91 					"/>
					<polygon fill="#FFFFFF" points="1457.812,464.845 1506.368,473.426 1481.479,429.476 1432.923,420.895 					"/>
					<polygon fill="#FFFFFF" points="1408.525,377.816 1360.253,369.287 1384.65,412.365 1432.923,420.895 					"/>
					<polygon fill="#FFFFFF" points="1459.596,621.828 1508.151,630.408 1483.261,586.459 1434.706,577.877 					"/>
					<polygon fill="#FFFFFF" points="1410.309,534.799 1362.036,526.27 1386.434,569.348 1434.706,577.877 					"/>
					<polygon fill="#FFFFFF" points="1508.919,708.898 1557.475,717.48 1532.584,673.529 1484.029,664.949 					"/>
					<polygon fill="#FFFFFF" points="1459.631,621.871 1411.359,613.34 1435.756,656.42 1484.029,664.949 					"/>
					<polygon fill="#FFFFFF" points="1605.711,725.967 1654.267,734.549 1629.376,690.598 1580.821,682.018 					"/>
					<polygon fill="#FFFFFF" points="1556.424,638.939 1508.151,630.408 1532.549,673.488 1580.821,682.018 					"/>
					<polygon fill="#FFFFFF" points="1556.43,638.951 1604.984,647.533 1580.094,603.582 1531.539,595.002 					"/>
					<polygon fill="#FFFFFF" points="1507.142,551.924 1458.869,543.393 1483.267,586.473 1531.539,595.002 					"/>
					<polygon fill="#FFFFFF" points="1554.646,481.943 1603.201,490.525 1578.311,446.574 1529.756,437.994 					"/>
					<polygon fill="#FFFFFF" points="1505.358,394.916 1457.086,386.386 1481.483,429.465 1529.756,437.994 					"/>
					<polygon fill="#FFFFFF" points="1603.969,569.017 1652.523,577.599 1627.633,533.646 1579.078,525.065 					"/>
					<polygon fill="#FFFFFF" points="1554.682,481.988 1506.408,473.457 1530.807,516.536 1579.078,525.065 					"/>
					<polygon fill="#FFFFFF" points="1700.762,586.085 1749.316,594.667 1724.426,550.716 1675.871,542.134 					"/>
					<polygon fill="#FFFFFF" points="1651.474,499.056 1603.201,490.525 1627.599,533.604 1675.871,542.134 					"/>
					<polygon fill="#FFFFFF" points="1651.479,499.067 1700.033,507.649 1675.145,463.699 1626.589,455.117 					"/>
					<polygon fill="#FFFFFF" points="1602.191,412.04 1553.919,403.51 1578.316,446.588 1626.589,455.117 					"/>
					<polygon fill="#FFFFFF" points="1653.262,656.052 1701.816,664.632 1676.927,620.683 1628.372,612.101 					"/>
					<polygon fill="#FFFFFF" points="1603.975,569.021 1555.702,560.493 1580.1,603.571 1628.372,612.101 					"/>
					<polygon fill="#FFFFFF" points="1702.584,743.122 1751.141,751.704 1726.25,707.753 1677.695,699.173 					"/>
					<polygon fill="#FFFFFF" points="1653.297,656.095 1605.025,647.562 1629.422,690.644 1677.695,699.173 					"/>
					<polygon fill="#FFFFFF" points="1799.377,760.19 1847.932,768.771 1823.041,724.821 1774.486,716.241 					"/>
					<polygon fill="#FFFFFF" points="1750.09,673.163 1701.816,664.632 1726.215,707.712 1774.486,716.241 					"/>
					<polygon fill="#FFFFFF" points="1750.096,673.175 1798.65,681.757 1773.76,637.806 1725.205,629.226 					"/>
					<polygon fill="#FFFFFF" points="1700.807,586.146 1652.535,577.616 1676.933,620.696 1725.205,629.226 					"/>
					<g>
						<polygon fill="#4D86FC" points="1022.889,466.195 1047.287,509.273 1095.842,517.854 1071.443,474.775 						"/>
						<polygon fill="#4D86FC" points="999.014,500.744 1023.904,544.696 1072.177,553.224 1047.287,509.273 						"/>
						<polygon fill="#4D86FC" points="1072.212,553.268 1096.609,596.345 1145.164,604.926 1120.767,561.847 						"/>
						<polygon fill="#4D86FC" points="1048.337,587.815 1073.229,631.768 1121.5,640.295 1096.609,596.345 						"/>
						<polygon fill="#4D86FC" points="1169.004,570.336 1193.402,613.413 1241.957,621.994 1217.559,578.915 						"/>
						<polygon fill="#4D86FC" points="1145.129,604.884 1170.02,648.836 1218.292,657.363 1193.402,613.413 						"/>
						<polygon fill="#4D86FC" points="1119.723,483.32 1144.119,526.396 1192.674,534.979 1168.277,491.899 						"/>
						<polygon fill="#4D86FC" points="1095.848,517.868 1120.738,561.82 1169.01,570.348 1144.119,526.396 						"/>
						<polygon fill="#4D86FC" points="924.396,292.264 948.794,335.342 997.349,343.923 972.951,300.844 						"/>
						<polygon fill="#4D86FC" points="900.521,326.812 925.412,370.765 973.684,379.292 948.794,335.342 						"/>
						<polygon fill="#4D86FC" points="973.719,379.336 998.117,422.413 1046.672,430.994 1022.273,387.915 						"/>
						<polygon fill="#4D86FC" points="949.844,413.884 974.734,457.836 1023.007,466.363 998.117,422.413 						"/>
						<polygon fill="#4D86FC" points="1070.512,396.404 1094.909,439.481 1143.464,448.062 1119.066,404.983 						"/>
						<polygon fill="#4D86FC" points="1046.637,430.952 1071.527,474.904 1119.799,483.432 1094.909,439.481 						"/>
						<polygon fill="#4D86FC" points="1021.229,309.389 1045.627,352.466 1094.182,361.047 1069.784,317.968 						"/>
						<polygon fill="#4D86FC" points="997.354,343.938 1022.245,387.889 1070.518,396.416 1045.627,352.466 						"/>
						<polygon fill="#4D86FC" points="1118.011,326.438 1142.408,369.515 1190.963,378.096 1166.564,335.017 						"/>
						<polygon fill="#4D86FC" points="1094.136,360.985 1119.026,404.938 1167.299,413.465 1142.408,369.515 						"/>
						<polygon fill="#4D86FC" points="1167.334,413.509 1191.73,456.586 1240.285,465.167 1215.889,422.088 						"/>
						<polygon fill="#4D86FC" points="1143.459,448.057 1168.35,492.009 1216.621,500.536 1191.73,456.586 						"/>
						<polygon fill="#4D86FC" points="1264.126,430.577 1288.523,473.654 1337.078,482.235 1312.681,439.156 						"/>
						<polygon fill="#4D86FC" points="1240.251,465.125 1265.142,509.077 1313.414,517.604 1288.523,473.654 						"/>
						<polygon fill="#4D86FC" points="1214.844,343.561 1239.241,386.639 1287.796,395.22 1263.398,352.141 						"/>
						<polygon fill="#4D86FC" points="1190.969,378.109 1215.859,422.062 1264.131,430.589 1239.241,386.639 						"/>
						<polygon fill="#4D86FC" points="829.192,432.037 853.59,475.115 902.145,483.696 877.747,440.617 						"/>
						<polygon fill="#4D86FC" points="805.317,466.586 830.208,510.538 878.48,519.065 853.59,475.115 						"/>
						<polygon fill="#4D86FC" points="878.516,519.11 902.912,562.188 951.467,570.769 927.07,527.688 						"/>
						<polygon fill="#4D86FC" points="854.641,553.657 879.531,597.61 927.803,606.138 902.912,562.188 						"/>
						<polygon fill="#4D86FC" points="975.308,536.179 999.705,579.255 1048.26,587.837 1023.862,544.757 						"/>
						<polygon fill="#4D86FC" points="951.433,570.726 976.323,614.679 1024.596,623.206 999.705,579.255 						"/>
						<polygon fill="#4D86FC" points="926.025,449.162 950.423,492.239 998.979,500.821 974.58,457.741 						"/>
						<polygon fill="#4D86FC" points="902.15,483.71 927.041,527.663 975.312,536.19 950.423,492.239 						"/>
						<polygon fill="#4D86FC" points="684.787,484.84 709.184,527.918 757.738,536.499 733.342,493.42 						"/>
						<polygon fill="#4D86FC" points="660.912,519.389 685.803,563.341 734.074,571.868 709.184,527.918 						"/>
						<polygon fill="#4D86FC" points="734.109,571.913 758.507,614.989 807.062,623.571 782.664,580.491 						"/>
						<polygon fill="#4D86FC" points="710.234,606.46 735.125,650.413 783.396,658.94 758.507,614.989 						"/>
						<polygon fill="#4D86FC" points="830.902,588.981 855.299,632.058 903.854,640.64 879.457,597.56 						"/>
						<polygon fill="#4D86FC" points="807.027,623.528 831.918,667.481 880.189,676.009 855.299,632.058 						"/>
						<polygon fill="#4D86FC" points="781.619,501.964 806.018,545.042 854.572,553.624 830.174,510.544 						"/>
						<polygon fill="#4D86FC" points="757.744,536.513 782.635,580.466 830.907,588.993 806.018,545.042 						"/>
						<polygon fill="#4D86FC" points="1216.627,500.542 1241.024,543.62 1289.579,552.202 1265.182,509.122 						"/>
						<polygon fill="#4D86FC" points="1192.752,535.091 1217.643,579.044 1265.914,587.571 1241.024,543.62 						"/>
						<polygon fill="#4D86FC" points="1265.949,587.614 1290.348,630.692 1338.902,639.271 1314.504,596.194 						"/>
						<polygon fill="#4D86FC" points="1242.074,622.163 1266.965,666.114 1315.237,674.642 1290.348,630.692 						"/>
						<polygon fill="#4D86FC" points="1362.742,604.683 1387.14,647.761 1435.694,656.341 1411.297,613.263 						"/>
						<polygon fill="#4D86FC" points="1338.867,639.231 1363.758,683.183 1412.029,691.71 1387.14,647.761 						"/>
						<polygon fill="#4D86FC" points="1313.46,517.667 1337.857,560.745 1386.412,569.325 1362.015,526.247 						"/>
						<polygon fill="#4D86FC" points="1289.585,552.216 1314.476,596.167 1362.748,604.694 1337.857,560.745 						"/>
						<polygon fill="#4D86FC" points="1311.692,360.693 1336.09,403.771 1384.645,412.352 1360.247,369.272 						"/>
						<polygon fill="#4D86FC" points="1287.817,395.241 1312.708,439.193 1360.98,447.721 1336.09,403.771 						"/>
						<polygon fill="#4D86FC" points="1361.016,447.765 1385.412,490.842 1433.967,499.423 1409.57,456.344 						"/>
						<polygon fill="#4D86FC" points="1337.141,482.312 1362.031,526.266 1410.303,534.793 1385.412,490.842 						"/>
						<polygon fill="#4D86FC" points="1457.808,464.833 1482.205,507.91 1530.76,516.492 1506.362,473.412 						"/>
						<polygon fill="#4D86FC" points="1433.933,499.381 1458.823,543.334 1507.096,551.861 1482.205,507.91 						"/>
						<polygon fill="#4D86FC" points="1408.525,377.816 1432.923,420.895 1481.479,429.476 1457.08,386.396 						"/>
						<polygon fill="#4D86FC" points="1384.65,412.365 1409.541,456.317 1457.812,464.845 1432.923,420.895 						"/>
						<polygon fill="#4D86FC" points="1410.309,534.799 1434.706,577.877 1483.261,586.459 1458.863,543.379 						"/>
						<polygon fill="#4D86FC" points="1386.434,569.348 1411.324,613.301 1459.596,621.828 1434.706,577.877 						"/>
						<polygon fill="#4D86FC" points="1459.631,621.871 1484.029,664.949 1532.584,673.529 1508.186,630.451 						"/>
						<polygon fill="#4D86FC" points="1435.756,656.42 1460.646,700.371 1508.919,708.898 1484.029,664.949 						"/>
						<polygon fill="#4D86FC" points="1556.424,638.939 1580.821,682.018 1629.376,690.598 1604.979,647.52 						"/>
						<polygon fill="#4D86FC" points="1532.549,673.488 1557.439,717.439 1605.711,725.967 1580.821,682.018 						"/>
						<polygon fill="#4D86FC" points="1507.142,551.924 1531.539,595.002 1580.094,603.582 1555.696,560.504 						"/>
						<polygon fill="#4D86FC" points="1483.267,586.473 1508.157,630.424 1556.43,638.951 1531.539,595.002 						"/>
						<polygon fill="#4D86FC" points="1505.358,394.916 1529.756,437.994 1578.311,446.574 1553.913,403.496 						"/>
						<polygon fill="#4D86FC" points="1481.483,429.465 1506.374,473.416 1554.646,481.943 1529.756,437.994 						"/>
						<polygon fill="#4D86FC" points="1554.682,481.988 1579.078,525.065 1627.633,533.646 1603.236,490.566 						"/>
						<polygon fill="#4D86FC" points="1530.807,516.536 1555.697,560.489 1603.969,569.017 1579.078,525.065 						"/>
						<polygon fill="#4D86FC" points="1651.474,499.056 1675.871,542.134 1724.426,550.716 1700.027,507.636 						"/>
						<polygon fill="#4D86FC" points="1627.599,533.604 1652.489,577.558 1700.762,586.085 1675.871,542.134 						"/>
						<polygon fill="#4D86FC" points="1602.191,412.04 1626.589,455.117 1675.145,463.699 1650.746,420.619 						"/>
						<polygon fill="#4D86FC" points="1578.316,446.588 1603.207,490.541 1651.479,499.067 1626.589,455.117 						"/>
						<polygon fill="#4D86FC" points="1603.975,569.021 1628.372,612.101 1676.927,620.683 1652.529,577.604 						"/>
						<polygon fill="#4D86FC" points="1580.1,603.571 1604.99,647.524 1653.262,656.052 1628.372,612.101 						"/>
						<polygon fill="#4D86FC" points="1653.297,656.095 1677.695,699.173 1726.25,707.753 1701.852,664.675 						"/>
						<polygon fill="#4D86FC" points="1629.422,690.644 1654.312,734.595 1702.584,743.122 1677.695,699.173 						"/>
						<polygon fill="#4D86FC" points="1750.09,673.163 1774.486,716.241 1823.041,724.821 1798.645,681.743 						"/>
						<polygon fill="#4D86FC" points="1726.215,707.712 1751.105,751.663 1799.377,760.19 1774.486,716.241 						"/>
						<polygon fill="#4D86FC" points="1700.807,586.146 1725.205,629.226 1773.76,637.806 1749.361,594.729 						"/>
						<polygon fill="#4D86FC" points="1676.933,620.696 1701.822,664.646 1750.096,673.175 1725.205,629.226 						"/>
					</g>
					<polygon fill="#FFFFFF" points="418.523,553.224 467.078,561.805 442.188,517.854 393.633,509.273 					"/>
					<polygon fill="#FFFFFF" points="369.235,466.195 320.963,457.666 345.36,500.744 393.633,509.273 					"/>
					<polygon fill="#FFFFFF" points="467.846,640.295 516.401,648.876 491.51,604.926 442.956,596.345 					"/>
					<polygon fill="#FFFFFF" points="418.558,553.268 370.286,544.736 394.683,587.815 442.956,596.345 					"/>
					<polygon fill="#FFFFFF" points="564.638,657.363 613.193,665.944 588.303,621.994 539.748,613.413 					"/>
					<polygon fill="#FFFFFF" points="515.351,570.336 467.078,561.805 491.476,604.884 539.748,613.413 					"/>
					<polygon fill="#FFFFFF" points="515.356,570.348 563.911,578.929 539.021,534.979 490.466,526.396 					"/>
					<polygon fill="#FFFFFF" points="466.068,483.32 417.796,474.789 442.193,517.868 490.466,526.396 					"/>
					<polygon fill="#FFFFFF" points="320.03,379.292 368.585,387.873 343.695,343.923 295.14,335.342 					"/>
					<polygon fill="#FFFFFF" points="270.743,292.264 222.47,283.734 246.868,326.812 295.14,335.342 					"/>
					<polygon fill="#FFFFFF" points="369.353,466.363 417.908,474.944 393.018,430.994 344.463,422.413 					"/>
					<polygon fill="#FFFFFF" points="320.065,379.336 271.793,370.805 296.19,413.884 344.463,422.413 					"/>
					<polygon fill="#FFFFFF" points="466.146,483.432 514.701,492.013 489.81,448.062 441.255,439.481 					"/>
					<polygon fill="#FFFFFF" points="416.858,396.404 368.585,387.873 392.983,430.952 441.255,439.481 					"/>
					<polygon fill="#FFFFFF" points="416.863,396.416 465.418,404.997 440.528,361.047 391.973,352.466 					"/>
					<polygon fill="#FFFFFF" points="367.576,309.389 319.303,300.857 343.701,343.938 391.973,352.466 					"/>
					<polygon fill="#FFFFFF" points="513.645,413.465 562.2,422.046 537.309,378.096 488.754,369.515 					"/>
					<polygon fill="#FFFFFF" points="464.357,326.438 416.084,317.906 440.482,360.985 488.754,369.515 					"/>
					<polygon fill="#FFFFFF" points="562.967,500.536 611.521,509.118 586.632,465.167 538.077,456.586 					"/>
					<polygon fill="#FFFFFF" points="513.68,413.509 465.407,404.978 489.805,448.057 538.077,456.586 					"/>
					<polygon fill="#FFFFFF" points="659.76,517.604 708.314,526.188 683.424,482.235 634.869,473.654 					"/>
					<polygon fill="#FFFFFF" points="610.473,430.577 562.2,422.046 586.598,465.125 634.869,473.654 					"/>
					<polygon fill="#FFFFFF" points="610.479,430.589 659.033,439.17 634.143,395.22 585.588,386.639 					"/>
					<polygon fill="#FFFFFF" points="561.19,343.561 512.917,335.031 537.315,378.109 585.588,386.639 					"/>
					<polygon fill="#FFFFFF" points="224.826,519.065 273.381,527.646 248.491,483.696 199.936,475.115 					"/>
					<polygon fill="#FFFFFF" points="175.539,432.037 127.266,423.508 151.664,466.586 199.936,475.115 					"/>
					<polygon fill="#FFFFFF" points="274.149,606.138 322.704,614.718 297.813,570.769 249.259,562.188 					"/>
					<polygon fill="#FFFFFF" points="224.861,519.11 176.589,510.579 200.986,553.657 249.259,562.188 					"/>
					<polygon fill="#FFFFFF" points="370.941,623.206 419.497,631.786 394.606,587.837 346.051,579.255 					"/>
					<polygon fill="#FFFFFF" points="321.654,536.179 273.381,527.646 297.779,570.726 346.051,579.255 					"/>
					<polygon fill="#FFFFFF" points="321.659,536.19 370.214,544.771 345.324,500.821 296.769,492.239 					"/>
					<polygon fill="#FFFFFF" points="272.372,449.162 224.099,440.631 248.497,483.71 296.769,492.239 					"/>
					<polygon fill="#FFFFFF" points="80.42,571.868 128.976,580.45 104.085,536.499 55.53,527.918 					"/>
					<polygon fill="#FFFFFF" points="31.133,484.84 -17.14,476.311 7.258,519.389 55.53,527.918 					"/>
					<polygon fill="#FFFFFF" points="129.743,658.94 178.298,667.521 153.408,623.571 104.853,614.989 					"/>
					<polygon fill="#FFFFFF" points="80.456,571.913 32.183,563.382 56.581,606.46 104.853,614.989 					"/>
					<polygon fill="#FFFFFF" points="226.536,676.009 275.091,684.589 250.2,640.64 201.646,632.058 					"/>
					<polygon fill="#FFFFFF" points="177.248,588.981 128.976,580.45 153.373,623.528 201.646,632.058 					"/>
					<polygon fill="#FFFFFF" points="177.253,588.993 225.809,597.573 200.918,553.624 152.363,545.042 					"/>
					<polygon fill="#FFFFFF" points="127.966,501.964 79.693,493.434 104.091,536.513 152.363,545.042 					"/>
					<polygon fill="#FFFFFF" points="612.261,587.571 660.816,596.151 635.926,552.202 587.371,543.62 					"/>
					<polygon fill="#FFFFFF" points="562.973,500.542 514.701,492.013 539.098,535.091 587.371,543.62 					"/>
					<polygon fill="#FFFFFF" points="661.584,674.642 710.139,683.224 685.248,639.271 636.693,630.692 					"/>
					<polygon fill="#FFFFFF" points="612.296,587.614 564.023,579.083 588.421,622.163 636.693,630.692 					"/>
					<polygon fill="#FFFFFF" points="758.376,691.71 806.932,700.292 782.041,656.341 733.486,647.761 					"/>
					<polygon fill="#FFFFFF" points="709.088,604.683 660.816,596.151 685.213,639.231 733.486,647.761 					"/>
					<polygon fill="#FFFFFF" points="709.094,604.694 757.648,613.276 732.758,569.325 684.203,560.745 					"/>
					<polygon fill="#FFFFFF" points="659.807,517.667 611.533,509.136 635.932,552.216 684.203,560.745 					"/>
					<polygon fill="#FFFFFF" points="707.326,447.721 755.881,456.302 730.99,412.352 682.436,403.771 					"/>
					<polygon fill="#FFFFFF" points="658.039,360.693 609.766,352.162 634.164,395.241 682.436,403.771 					"/>
					<polygon fill="#FFFFFF" points="756.648,534.793 805.204,543.375 780.312,499.423 731.759,490.842 					"/>
					<polygon fill="#FFFFFF" points="707.361,447.765 659.089,439.233 683.486,482.312 731.759,490.842 					"/>
					<polygon fill="#FFFFFF" points="853.441,551.861 901.996,560.443 877.105,516.492 828.551,507.91 					"/>
					<polygon fill="#FFFFFF" points="804.154,464.833 755.881,456.302 780.279,499.381 828.551,507.91 					"/>
					<polygon fill="#FFFFFF" points="804.159,464.845 852.715,473.426 827.824,429.476 779.27,420.895 					"/>
					<polygon fill="#FFFFFF" points="754.871,377.816 706.6,369.287 730.996,412.365 779.27,420.895 					"/>
					<polygon fill="#FFFFFF" points="805.942,621.828 854.498,630.408 829.607,586.459 781.053,577.877 					"/>
					<polygon fill="#FFFFFF" points="756.654,534.799 708.383,526.27 732.779,569.348 781.053,577.877 					"/>
					<polygon fill="#FFFFFF" points="855.266,708.898 903.82,717.48 878.93,673.529 830.375,664.949 					"/>
					<polygon fill="#FFFFFF" points="805.979,621.871 757.705,613.34 782.104,656.42 830.375,664.949 					"/>
					<polygon fill="#FFFFFF" points="952.058,725.967 1000.613,734.549 975.723,690.598 927.168,682.018 					"/>
					<polygon fill="#FFFFFF" points="902.77,638.939 854.498,630.408 878.895,673.488 927.168,682.018 					"/>
					<polygon fill="#FFFFFF" points="902.775,638.951 951.33,647.533 926.439,603.582 877.885,595.002 					"/>
					<polygon fill="#FFFFFF" points="853.488,551.924 805.215,543.393 829.613,586.473 877.885,595.002 					"/>
					<polygon fill="#FFFFFF" points="900.992,481.943 949.547,490.525 924.656,446.574 876.102,437.994 					"/>
					<polygon fill="#FFFFFF" points="851.705,394.916 803.432,386.386 827.83,429.465 876.102,437.994 					"/>
					<polygon fill="#FFFFFF" points="950.314,569.017 998.87,577.599 973.979,533.646 925.425,525.065 					"/>
					<polygon fill="#FFFFFF" points="901.027,481.988 852.755,473.457 877.152,516.536 925.425,525.065 					"/>
					<polygon fill="#FFFFFF" points="1047.107,586.085 1095.663,594.667 1070.771,550.716 1022.217,542.134 					"/>
					<polygon fill="#FFFFFF" points="997.82,499.056 949.547,490.525 973.945,533.604 1022.217,542.134 					"/>
					<polygon fill="#FFFFFF" points="997.825,499.067 1046.38,507.649 1021.49,463.699 972.936,455.117 					"/>
					<polygon fill="#FFFFFF" points="948.537,412.04 900.266,403.51 924.662,446.588 972.936,455.117 					"/>
					<polygon fill="#FFFFFF" points="999.607,656.052 1048.163,664.632 1023.273,620.683 974.719,612.101 					"/>
					<polygon fill="#FFFFFF" points="950.32,569.021 902.049,560.493 926.445,603.571 974.719,612.101 					"/>
					<polygon fill="#FFFFFF" points="1048.931,743.122 1097.487,751.704 1072.597,707.753 1024.041,699.173 					"/>
					<polygon fill="#FFFFFF" points="999.645,656.095 951.371,647.562 975.77,690.644 1024.041,699.173 					"/>
					<polygon fill="#FFFFFF" points="1145.724,760.19 1194.278,768.771 1169.388,724.821 1120.833,716.241 					"/>
					<polygon fill="#FFFFFF" points="1096.438,673.163 1048.163,664.632 1072.562,707.712 1120.833,716.241 					"/>
					<polygon fill="#FFFFFF" points="1096.442,673.175 1144.997,681.757 1120.105,637.806 1071.552,629.226 					"/>
					<polygon fill="#FFFFFF" points="1047.153,586.146 998.881,577.616 1023.279,620.696 1071.552,629.226 					"/>
					<g>
						<polygon fill="#4D86FC" points="369.235,466.195 393.633,509.273 442.188,517.854 417.79,474.775 						"/>
						<polygon fill="#4D86FC" points="345.36,500.744 370.251,544.696 418.523,553.224 393.633,509.273 						"/>
						<polygon fill="#4D86FC" points="418.558,553.268 442.956,596.345 491.51,604.926 467.113,561.847 						"/>
						<polygon fill="#4D86FC" points="394.683,587.815 419.574,631.768 467.846,640.295 442.956,596.345 						"/>
						<polygon fill="#4D86FC" points="515.351,570.336 539.748,613.413 588.303,621.994 563.905,578.915 						"/>
						<polygon fill="#4D86FC" points="491.476,604.884 516.366,648.836 564.638,657.363 539.748,613.413 						"/>
						<polygon fill="#4D86FC" points="466.068,483.32 490.466,526.396 539.021,534.979 514.623,491.899 						"/>
						<polygon fill="#4D86FC" points="442.193,517.868 467.084,561.82 515.356,570.348 490.466,526.396 						"/>
						<polygon fill="#4D86FC" points="270.743,292.264 295.14,335.342 343.695,343.923 319.297,300.844 						"/>
						<polygon fill="#4D86FC" points="246.868,326.812 271.758,370.765 320.03,379.292 295.14,335.342 						"/>
						<polygon fill="#4D86FC" points="320.065,379.336 344.463,422.413 393.018,430.994 368.62,387.915 						"/>
						<polygon fill="#4D86FC" points="296.19,413.884 321.081,457.836 369.353,466.363 344.463,422.413 						"/>
						<polygon fill="#4D86FC" points="416.858,396.404 441.255,439.481 489.81,448.062 465.413,404.983 						"/>
						<polygon fill="#4D86FC" points="392.983,430.952 417.874,474.904 466.146,483.432 441.255,439.481 						"/>
						<polygon fill="#4D86FC" points="367.576,309.389 391.973,352.466 440.528,361.047 416.13,317.968 						"/>
						<polygon fill="#4D86FC" points="343.701,343.938 368.591,387.889 416.863,396.416 391.973,352.466 						"/>
						<polygon fill="#4D86FC" points="464.357,326.438 488.754,369.515 537.309,378.096 512.912,335.017 						"/>
						<polygon fill="#4D86FC" points="440.482,360.985 465.373,404.938 513.645,413.465 488.754,369.515 						"/>
						<polygon fill="#4D86FC" points="513.68,413.509 538.077,456.586 586.632,465.167 562.234,422.088 						"/>
						<polygon fill="#4D86FC" points="489.805,448.057 514.695,492.009 562.967,500.536 538.077,456.586 						"/>
						<polygon fill="#4D86FC" points="610.473,430.577 634.869,473.654 683.424,482.235 659.027,439.156 						"/>
						<polygon fill="#4D86FC" points="586.598,465.125 611.488,509.077 659.76,517.604 634.869,473.654 						"/>
						<polygon fill="#4D86FC" points="561.19,343.561 585.588,386.639 634.143,395.22 609.744,352.141 						"/>
						<polygon fill="#4D86FC" points="537.315,378.109 562.206,422.062 610.479,430.589 585.588,386.639 						"/>
						<polygon fill="#4D86FC" points="175.539,432.037 199.936,475.115 248.491,483.696 224.093,440.617 						"/>
						<polygon fill="#4D86FC" points="151.664,466.586 176.554,510.538 224.826,519.065 199.936,475.115 						"/>
						<polygon fill="#4D86FC" points="224.861,519.11 249.259,562.188 297.813,570.769 273.416,527.688 						"/>
						<polygon fill="#4D86FC" points="200.986,553.657 225.877,597.61 274.149,606.138 249.259,562.188 						"/>
						<polygon fill="#4D86FC" points="321.654,536.179 346.051,579.255 394.606,587.837 370.208,544.757 						"/>
						<polygon fill="#4D86FC" points="297.779,570.726 322.669,614.679 370.941,623.206 346.051,579.255 						"/>
						<polygon fill="#4D86FC" points="272.372,449.162 296.769,492.239 345.324,500.821 320.926,457.741 						"/>
						<polygon fill="#4D86FC" points="248.497,483.71 273.387,527.663 321.659,536.19 296.769,492.239 						"/>
						<polygon fill="#4D86FC" points="31.133,484.84 55.53,527.918 104.085,536.499 79.688,493.42 						"/>
						<polygon fill="#4D86FC" points="7.258,519.389 32.148,563.341 80.42,571.868 55.53,527.918 						"/>
						<polygon fill="#4D86FC" points="80.456,571.913 104.853,614.989 153.408,623.571 129.01,580.491 						"/>
						<polygon fill="#4D86FC" points="56.581,606.46 81.471,650.413 129.743,658.94 104.853,614.989 						"/>
						<polygon fill="#4D86FC" points="177.248,588.981 201.646,632.058 250.2,640.64 225.803,597.56 						"/>
						<polygon fill="#4D86FC" points="153.373,623.528 178.264,667.481 226.536,676.009 201.646,632.058 						"/>
						<polygon fill="#4D86FC" points="127.966,501.964 152.363,545.042 200.918,553.624 176.521,510.544 						"/>
						<polygon fill="#4D86FC" points="104.091,536.513 128.981,580.466 177.253,588.993 152.363,545.042 						"/>
						<polygon fill="#4D86FC" points="562.973,500.542 587.371,543.62 635.926,552.202 611.527,509.122 						"/>
						<polygon fill="#4D86FC" points="539.098,535.091 563.989,579.044 612.261,587.571 587.371,543.62 						"/>
						<polygon fill="#4D86FC" points="612.296,587.614 636.693,630.692 685.248,639.271 660.851,596.194 						"/>
						<polygon fill="#4D86FC" points="588.421,622.163 613.312,666.114 661.584,674.642 636.693,630.692 						"/>
						<polygon fill="#4D86FC" points="709.088,604.683 733.486,647.761 782.041,656.341 757.643,613.263 						"/>
						<polygon fill="#4D86FC" points="685.213,639.231 710.104,683.183 758.376,691.71 733.486,647.761 						"/>
						<polygon fill="#4D86FC" points="659.807,517.667 684.203,560.745 732.758,569.325 708.361,526.247 						"/>
						<polygon fill="#4D86FC" points="635.932,552.216 660.822,596.167 709.094,604.694 684.203,560.745 						"/>
						<polygon fill="#4D86FC" points="658.039,360.693 682.436,403.771 730.99,412.352 706.594,369.272 						"/>
						<polygon fill="#4D86FC" points="634.164,395.241 659.055,439.193 707.326,447.721 682.436,403.771 						"/>
						<polygon fill="#4D86FC" points="707.361,447.765 731.759,490.842 780.312,499.423 755.916,456.344 						"/>
						<polygon fill="#4D86FC" points="683.486,482.312 708.377,526.266 756.648,534.793 731.759,490.842 						"/>
						<polygon fill="#4D86FC" points="804.154,464.833 828.551,507.91 877.105,516.492 852.709,473.412 						"/>
						<polygon fill="#4D86FC" points="780.279,499.381 805.17,543.334 853.441,551.861 828.551,507.91 						"/>
						<polygon fill="#4D86FC" points="754.871,377.816 779.27,420.895 827.824,429.476 803.426,386.396 						"/>
						<polygon fill="#4D86FC" points="730.996,412.365 755.887,456.317 804.159,464.845 779.27,420.895 						"/>
						<polygon fill="#4D86FC" points="756.654,534.799 781.053,577.877 829.607,586.459 805.209,543.379 						"/>
						<polygon fill="#4D86FC" points="732.779,569.348 757.67,613.301 805.942,621.828 781.053,577.877 						"/>
						<polygon fill="#4D86FC" points="805.979,621.871 830.375,664.949 878.93,673.529 854.532,630.451 						"/>
						<polygon fill="#4D86FC" points="782.104,656.42 806.993,700.371 855.266,708.898 830.375,664.949 						"/>
						<polygon fill="#4D86FC" points="902.77,638.939 927.168,682.018 975.723,690.598 951.324,647.52 						"/>
						<polygon fill="#4D86FC" points="878.895,673.488 903.785,717.439 952.058,725.967 927.168,682.018 						"/>
						<polygon fill="#4D86FC" points="853.488,551.924 877.885,595.002 926.439,603.582 902.043,560.504 						"/>
						<polygon fill="#4D86FC" points="829.613,586.473 854.504,630.424 902.775,638.951 877.885,595.002 						"/>
						<polygon fill="#4D86FC" points="851.705,394.916 876.102,437.994 924.656,446.574 900.26,403.496 						"/>
						<polygon fill="#4D86FC" points="827.83,429.465 852.721,473.416 900.992,481.943 876.102,437.994 						"/>
						<polygon fill="#4D86FC" points="901.027,481.988 925.425,525.065 973.979,533.646 949.582,490.566 						"/>
						<polygon fill="#4D86FC" points="877.152,516.536 902.043,560.489 950.314,569.017 925.425,525.065 						"/>
						<polygon fill="#4D86FC" points="997.82,499.056 1022.217,542.134 1070.771,550.716 1046.374,507.636 						"/>
						<polygon fill="#4D86FC" points="973.945,533.604 998.836,577.558 1047.107,586.085 1022.217,542.134 						"/>
						<polygon fill="#4D86FC" points="948.537,412.04 972.936,455.117 1021.49,463.699 997.092,420.619 						"/>
						<polygon fill="#4D86FC" points="924.662,446.588 949.553,490.541 997.825,499.067 972.936,455.117 						"/>
						<polygon fill="#4D86FC" points="950.32,569.021 974.719,612.101 1023.273,620.683 998.875,577.604 						"/>
						<polygon fill="#4D86FC" points="926.445,603.571 951.336,647.524 999.607,656.052 974.719,612.101 						"/>
						<polygon fill="#4D86FC" points="999.645,656.095 1024.041,699.173 1072.597,707.753 1048.198,664.675 						"/>
						<polygon fill="#4D86FC" points="975.77,690.644 1000.659,734.595 1048.931,743.122 1024.041,699.173 						"/>
						<polygon fill="#4D86FC" points="1096.438,673.163 1120.833,716.241 1169.388,724.821 1144.991,681.743 						"/>
						<polygon fill="#4D86FC" points="1072.562,707.712 1097.452,751.663 1145.724,760.19 1120.833,716.241 						"/>
						<polygon fill="#4D86FC" points="1047.153,586.146 1071.552,629.226 1120.105,637.806 1095.708,594.729 						"/>
						<polygon fill="#4D86FC" points="1023.279,620.696 1048.169,664.646 1096.442,673.175 1071.552,629.226 						"/>
					</g>
				</g>
			</g>
		</g>
		<g>
			<g>
				<defs>
					<path id="SVGID_4_" d="M1464.219,569.169c-3.438,0.035-39.115,13.601-54.732,13.601c-15.615,0-43.342-37.113-57.723-37.113
						c-14.38,0,6.483,0.834-38.083,0.238c-44.562-0.596-164.729-179.948-175.681-177.146c-4.237,1.084-31.593,48.775-42.569,52.039
						c-6.132,1.822-17.479,10.212-31.092,21.307c69.011-0.851,37.277,67.568,23.601,79.045
						c-25.16,21.112-112.738-5.369-122.854-5.383c-10.107,0-9.199-4.306-19.402-4.306c-10.205,0-56.088,45.731-63.991,45.223
						c-7.905-0.511-7.753-6.518-19.515-6.537c-4.767-0.008-16.527,9.437-35.258,28.287c-10.829-6.647-16.354-9.418-16.354-9.418
						c-3.438,0.035-39.114,13.685-54.732,13.685c-15.616,0-43.341-37.073-57.722-37.073c-14.38,0,6.482,0.854-38.083,0.262
						c-44.563-0.596-104.8-36.136-111.681-61.778c-5.042-18.791-36.948,27.354-62.861,27.354
						c-25.914,0-80.411-106.535-103.654-106.535c-17.723,0-60.289,110.839-70.399,110.839c-10.108,0-9.199-4.304-19.402-4.304
						c-10.205,0-56.087,45.732-63.992,45.223c-7.905-0.511-7.751-6.351-19.513-6.37c-7.843-0.013-34.581,25.7-80.216,76.7h653.654
						h113.854h653.653C1493.484,584,1464.219,569.169,1464.219,569.169z"/>
				</defs>
				<clipPath id="SVGID_5_">
					<use xlink:href="#SVGID_4_"  overflow="visible"/>
				</clipPath>
				
					<linearGradient id="circle_2_" gradientUnits="userSpaceOnUse" x1="1144.9424" y1="171.563" x2="1144.9424" y2="345.9224" gradientTransform="matrix(1 0 0 1 168 285)">
					<stop  offset="0" style="stop-color:#FFFFFF;stop-opacity:0"/>
					<stop  offset="1" style="stop-color:#FFFFFF"/>
				</linearGradient>
				
					<circle id="circle_1_" opacity="0.8" clip-path="url(#SVGID_5_)" fill="url(#circle_2_)" enable-background="new    " cx="1312.943" cy="543.742" r="87.18"/>
			</g>
		</g>
		<g>
			<g>
				<defs>
					<path id="SVGID_6_" d="M1464.219,569.169c-3.438,0.035-39.115,13.601-54.732,13.601c-15.615,0-43.342-37.113-57.723-37.113
						c-14.38,0,6.483,0.834-38.083,0.238c-44.562-0.596-164.729-179.948-175.681-177.146c-4.237,1.084-31.593,48.775-42.569,52.039
						c-6.132,1.822-17.479,10.212-31.092,21.307c69.011-0.851,37.277,67.568,23.601,79.045
						c-25.16,21.112-112.738-5.369-122.854-5.383c-10.107,0-9.199-4.306-19.402-4.306c-10.205,0-56.088,45.731-63.991,45.223
						c-7.905-0.511-7.753-6.518-19.515-6.537c-4.767-0.008-16.527,9.437-35.258,28.287c-10.829-6.647-16.354-9.418-16.354-9.418
						c-3.438,0.035-39.114,13.685-54.732,13.685c-15.616,0-43.341-37.073-57.722-37.073c-14.38,0,6.482,0.854-38.083,0.262
						c-44.563-0.596-104.8-36.136-111.681-61.778c-5.042-18.791-36.948,27.354-62.861,27.354
						c-25.914,0-80.411-106.535-103.654-106.535c-17.723,0-60.289,110.839-70.399,110.839c-10.108,0-9.199-4.304-19.402-4.304
						c-10.205,0-56.087,45.732-63.992,45.223c-7.905-0.511-7.751-6.351-19.513-6.37c-7.843-0.013-34.581,25.7-80.216,76.7h653.654
						h113.854h653.653C1493.484,584,1464.219,569.169,1464.219,569.169z"/>
				</defs>
				<clipPath id="SVGID_7_">
					<use xlink:href="#SVGID_6_"  overflow="visible"/>
				</clipPath>
				
					<linearGradient id="SVGID_8_" gradientUnits="userSpaceOnUse" x1="1055.6797" y1="289.4487" x2="1038.5364" y2="53.3574" gradientTransform="matrix(0.9974 0.0724 -0.0724 0.9974 107.8404 131.7514)">
					<stop  offset="0" style="stop-color:#FFFFFF;stop-opacity:0"/>
					<stop  offset="0.7486" style="stop-color:#FFFFFF"/>
				</linearGradient>
				<polyline clip-path="url(#SVGID_7_)" fill="url(#SVGID_8_)" points="1029.352,260.164 1114.403,496.88 1250.275,276.322 
					1033.598,260.59 				"/>
			</g>
		</g>
		<g>
			<g>
				<defs>
					<path id="SVGID_9_" d="M1464.219,569.169c-3.438,0.035-39.115,13.601-54.732,13.601c-15.615,0-43.342-37.113-57.723-37.113
						c-14.38,0,6.483,0.834-38.083,0.238c-44.562-0.596-164.729-179.948-175.681-177.146c-4.237,1.084-31.593,48.775-42.569,52.039
						c-6.132,1.822-17.479,10.212-31.092,21.307c69.011-0.851,37.277,67.568,23.601,79.045
						c-25.16,21.112-112.738-5.369-122.854-5.383c-10.107,0-9.199-4.306-19.402-4.306c-10.205,0-56.088,45.731-63.991,45.223
						c-7.905-0.511-7.753-6.518-19.515-6.537c-4.767-0.008-16.527,9.437-35.258,28.287c-10.829-6.647-16.354-9.418-16.354-9.418
						c-3.438,0.035-39.114,13.685-54.732,13.685c-15.616,0-43.341-37.073-57.722-37.073c-14.38,0,6.482,0.854-38.083,0.262
						c-44.563-0.596-104.8-36.136-111.681-61.778c-5.042-18.791-36.948,27.354-62.861,27.354
						c-25.914,0-80.411-106.535-103.654-106.535c-17.723,0-60.289,110.839-70.399,110.839c-10.108,0-9.199-4.304-19.402-4.304
						c-10.205,0-56.087,45.732-63.992,45.223c-7.905-0.511-7.751-6.351-19.513-6.37c-7.843-0.013-34.581,25.7-80.216,76.7h653.654
						h113.854h653.653C1493.484,584,1464.219,569.169,1464.219,569.169z"/>
				</defs>
				<clipPath id="SVGID_10_">
					<use xlink:href="#SVGID_9_"  overflow="visible"/>
				</clipPath>
				
					<linearGradient id="SVGID_11_" gradientUnits="userSpaceOnUse" x1="447.4097" y1="92.166" x2="447.4097" y2="282.2808" gradientTransform="matrix(1 0 0 1 168 285)">
					<stop  offset="0" style="stop-color:#FFFFFF;stop-opacity:0"/>
					<stop  offset="1" style="stop-color:#FFFFFF;stop-opacity:0.8"/>
				</linearGradient>
				<circle clip-path="url(#SVGID_10_)" fill="url(#SVGID_11_)" cx="615.41" cy="472.223" r="95.057"/>
			</g>
		</g>
		<g>
			<g>
				<defs>
					<path id="SVGID_12_" d="M1464.219,569.169c-3.438,0.035-39.115,13.601-54.732,13.601c-15.615,0-43.342-37.113-57.723-37.113
						c-14.38,0,6.483,0.834-38.083,0.238c-44.562-0.596-164.729-179.948-175.681-177.146c-4.237,1.084-31.593,48.775-42.569,52.039
						c-6.132,1.822-17.479,10.212-31.092,21.307c69.011-0.851,37.277,67.568,23.601,79.045
						c-25.16,21.112-112.738-5.369-122.854-5.383c-10.107,0-9.199-4.306-19.402-4.306c-10.205,0-56.088,45.731-63.991,45.223
						c-7.905-0.511-7.753-6.518-19.515-6.537c-4.767-0.008-16.527,9.437-35.258,28.287c-10.829-6.647-16.354-9.418-16.354-9.418
						c-3.438,0.035-39.114,13.685-54.732,13.685c-15.616,0-43.341-37.073-57.722-37.073c-14.38,0,6.482,0.854-38.083,0.262
						c-44.563-0.596-104.8-36.136-111.681-61.778c-5.042-18.791-36.948,27.354-62.861,27.354
						c-25.914,0-80.411-106.535-103.654-106.535c-17.723,0-60.289,110.839-70.399,110.839c-10.108,0-9.199-4.304-19.402-4.304
						c-10.205,0-56.087,45.732-63.992,45.223c-7.905-0.511-7.751-6.351-19.513-6.37c-7.843-0.013-34.581,25.7-80.216,76.7h653.654
						h113.854h653.653C1493.484,584,1464.219,569.169,1464.219,569.169z"/>
				</defs>
				<clipPath id="SVGID_13_">
					<use xlink:href="#SVGID_12_"  overflow="visible"/>
				</clipPath>
				
					<linearGradient id="SVGID_14_" gradientUnits="userSpaceOnUse" x1="856.0923" y1="286.5688" x2="856.0923" y2="105.9111" gradientTransform="matrix(1 0 0 1 168 285)">
					<stop  offset="0" style="stop-color:#FFFFFF;stop-opacity:0.8"/>
					<stop  offset="0.7479" style="stop-color:#FFFFFF"/>
				</linearGradient>
				<circle clip-path="url(#SVGID_13_)" fill="url(#SVGID_14_)" cx="1024.092" cy="481.24" r="90.329"/>
			</g>
		</g>
	</g>
</g>
<polyline opacity="0.3" fill="#4473E6" enable-background="new    " points="415.038,454.272 351.004,588 263.43,588 
	258.234,578.236 "/>
<g id="vector">
	<g>
		<g id="XMLID_50_">
			<g id="XMLID_72_">
				<path fill="none" d="M412.054,438.981l-67.181-116.175h-89.835l74.152,128.19L255.039,579.19h89.835l67.181-116.175
					C416.361,455.589,416.361,446.414,412.054,438.981z"/>
				<polygon id="XMLID_80_" fill="#FFC107" points="373.516,527.654 352.225,490.821 301.107,579.19 344.874,579.19 
					374.097,528.656 				"/>
				<path fill="none" d="M412.054,438.981l-67.181-116.175h-89.835l74.152,128.19L255.039,579.19h89.835l67.181-116.175
					C416.361,455.589,416.361,446.414,412.054,438.981z"/>
				<polygon fill="#0F9D58" points="329.19,450.999 352.225,490.821 301.107,579.19 255.039,579.19 				"/>
				<path fill="none" d="M412.054,438.981l-67.181-116.175h-89.835l74.152,128.19L255.039,579.19h89.835l67.181-116.175
					C416.361,455.589,416.361,446.414,412.054,438.981z"/>
				<polygon opacity="0.2" fill="#BF360C" enable-background="new    " points="344.874,577.188 302.269,577.188 301.107,579.19 
					344.874,579.19 374.097,528.656 373.516,527.654 				"/>
				<path fill="none" d="M412.054,438.981l-67.181-116.175h-89.835l74.152,128.19L255.039,579.19h89.835l67.181-116.175
					C416.361,455.589,416.361,446.414,412.054,438.981z"/>
				<polygon opacity="0.2" fill="#263238" enable-background="new    " points="256.201,577.188 255.039,579.19 301.107,579.19 
					302.269,577.188 				"/>
				<path fill="none" d="M412.054,438.981l-67.181-116.175h-89.835l74.152,128.19L255.039,579.19h89.835l67.181-116.175
					C416.361,455.589,416.361,446.414,412.054,438.981z"/>
				<polygon opacity="0.2" fill="#FFFFFF" enable-background="new    " points="255.039,579.19 256.201,579.19 329.771,452.001 
					329.19,450.999 				"/>
				<path fill="none" d="M412.054,438.981l-67.181-116.175h-89.835l74.152,128.19L255.039,579.19h89.835l67.181-116.175
					C416.361,455.589,416.361,446.414,412.054,438.981z"/>
				
					<radialGradient id="XMLID_2_" cx="121.77" cy="378.8608" r="88.7985" gradientTransform="matrix(1 0 0 1 252 149)" gradientUnits="userSpaceOnUse">
					<stop  offset="0" style="stop-color:#BF360C;stop-opacity:0.2"/>
					<stop  offset="1" style="stop-color:#BF360C;stop-opacity:0.02"/>
				</radialGradient>
				<polygon id="XMLID_79_" fill="url(#XMLID_2_)" points="374.097,528.656 374.097,528.656 352.225,490.821 346.855,500.093 				
					"/>
				<path fill="none" d="M412.054,438.981l-67.181-116.175h-89.835l74.152,128.19L255.039,579.19h89.835l67.181-116.175
					C416.361,455.589,416.361,446.414,412.054,438.981z"/>
				
					<radialGradient id="XMLID_3_" cx="121.5186" cy="379.4248" r="89.3811" gradientTransform="matrix(1 0 0 1 252 149)" gradientUnits="userSpaceOnUse">
					<stop  offset="0" style="stop-color:#263238;stop-opacity:0.2"/>
					<stop  offset="1" style="stop-color:#263238;stop-opacity:0.02"/>
				</radialGradient>
				<polygon id="XMLID_78_" fill="url(#XMLID_3_)" points="346.855,500.093 352.225,490.821 329.19,450.999 318.195,470.028 				"/>
				<path fill="none" d="M412.054,438.981l-67.181-116.175h-89.835l74.152,128.19L255.039,579.19h89.835l67.181-116.175
					C416.361,455.589,416.361,446.414,412.054,438.981z"/>
				<g id="XMLID_75_">
					<g id="XMLID_76_">
						<polygon id="XMLID_77_" fill="#4285F4" points="301.107,322.809 255.039,322.809 374.097,528.656 397.112,488.856 
							397.131,488.818 						"/>
					</g>
				</g>
				<path fill="none" d="M412.054,438.981l-67.181-116.175h-89.835l74.152,128.19L255.039,579.19h89.835l67.181-116.175
					C416.361,455.589,416.361,446.414,412.054,438.981z"/>
				<path fill="#DB4437" d="M412.054,463.018c4.309-7.429,4.309-16.604,0-24.034l-67.181-116.175h-43.766l96.024,166.012
					L412.054,463.018z"/>
				<path fill="none" d="M412.054,438.981l-67.181-116.175h-89.835l74.152,128.19L255.039,579.19h89.835l67.181-116.175
					C416.361,455.589,416.361,446.414,412.054,438.981z"/>
				<polygon opacity="0.2" fill="#1A237E" enable-background="new    " points="397.131,488.818 396.55,487.836 374.097,526.652 
					256.201,322.809 255.039,322.809 374.097,528.656 397.112,488.856 				"/>
				<path fill="none" d="M412.054,438.981l-67.181-116.175h-89.835l74.152,128.19L255.039,579.19h89.835l67.181-116.175
					C416.361,455.589,416.361,446.414,412.054,438.981z"/>
				<path opacity="0.2" fill="#FFFFFF" enable-background="new    " d="M344.874,324.812l67.181,116.173
					c1.983,3.428,3.004,7.212,3.165,11.017c0.182-4.486-0.841-9.014-3.165-13.02l-67.181-116.175h-89.835l1.162,2.005H344.874z"/>
				<path fill="none" d="M412.054,438.981l-67.181-116.175h-89.835l74.152,128.19L255.039,579.19h89.835l67.181-116.175
					C416.361,455.589,416.361,446.414,412.054,438.981z"/>
				<path id="XMLID_74_" opacity="0.2" fill="#3E2723" enable-background="new    " d="M397.131,488.818l14.923-25.803
					c2.323-4.006,3.346-8.53,3.165-13.02c-0.161,3.806-1.182,7.594-3.165,11.017l-15.504,26.821L397.131,488.818z"/>
				<path fill="none" d="M412.054,438.981l-67.181-116.175h-89.835l74.152,128.19L255.039,579.19h89.835l67.181-116.175
					C416.361,455.589,416.361,446.414,412.054,438.981z"/>
				
					<radialGradient id="XMLID_4_" cx="1.0352" cy="175.8125" r="269.1019" gradientTransform="matrix(1 0 0 1 252 149)" gradientUnits="userSpaceOnUse">
					<stop  offset="0" style="stop-color:#FFFFFF;stop-opacity:0.1"/>
					<stop  offset="1" style="stop-color:#FFFFFF;stop-opacity:0"/>
				</radialGradient>
				<path id="XMLID_73_" fill="url(#XMLID_4_)" d="M412.054,438.981l-67.181-116.175h-89.835l74.152,128.19L255.039,579.19h89.835
					l67.181-116.175C416.361,455.589,416.361,446.414,412.054,438.981z"/>
			</g>
		</g>
	</g>
	<g id="XMLID_8_">
		<path id="XMLID_104_" fill="#FFFFFF" d="M740.682,345.202h61.292c62.414,0,101.593,41.423,101.593,99.55
			c0,58.386-39.197,99.546-101.593,99.546h-61.292V345.202L740.682,345.202z M803.037,514.134c43.443,0,70.364-24.115,70.364-69.382
			c0-45.009-26.921-69.384-70.364-69.384h-32.189v138.766H803.037z"/>
		<rect id="XMLID_103_" x="510.341" y="339.993" fill="none" width="615.376" height="217.205"/>
		<path id="XMLID_102_" fill="#FFFFFF" d="M715.505,435.719h-95.48v29.563h67.317c-2.222,15.081-7.451,26.839-15.281,34.69
			c-9.976,9.976-25.56,20.95-52.897,20.95c-42.164,0-75.133-33.991-75.133-76.152c0-42.163,32.969-76.151,75.133-76.151
			c22.733,0,39.356,8.95,51.616,20.448l20.188-20.19c-17.127-16.364-39.858-28.884-71.807-28.884
			c-57.746,0-106.299,47.012-106.299,104.777c0,57.745,48.553,104.776,106.299,104.776c31.166,0,54.679-10.217,73.088-29.386
			c18.909-18.909,24.798-45.487,24.798-66.959C717.049,446.554,716.526,440.825,715.505,435.719z"/>
		<path id="XMLID_86_" fill="#FFFFFF" d="M1125.757,435.719h-95.479v29.563h67.317c-2.223,15.081-7.45,26.839-15.282,34.69
			c-9.975,9.976-25.559,20.95-52.898,20.95c-42.162,0-75.131-33.991-75.131-76.152c0-42.163,32.969-76.151,75.131-76.151
			c22.734,0,39.359,8.95,51.618,20.448l20.188-20.19c-17.126-16.364-39.858-28.884-71.808-28.884
			c-57.746,0-106.296,47.012-106.296,104.777c0,57.745,48.551,104.776,106.296,104.776c31.168,0,54.682-10.217,73.089-29.386
			c18.909-18.909,24.797-45.487,24.797-66.959C1127.299,446.554,1126.779,440.825,1125.757,435.719z"/>
	</g>
</g>
<g enable-background="new    ">
	<path fill="#FFFFFF" d="M1264.366,423.926v-80.974h24.768c12.363,0,22.297,3.73,29.799,11.196
		c7.502,7.464,11.254,17.229,11.254,29.29c0,12.14-3.752,21.923-11.254,29.348c-7.502,7.427-17.436,11.14-29.799,11.14H1264.366
		L1264.366,423.926z M1274.771,352.904v61.068h14.362c9.424,0,16.851-2.693,22.279-8.086c5.428-5.39,8.143-12.873,8.143-22.449
		c0-9.498-2.715-16.964-8.143-22.392c-5.43-5.429-12.854-8.143-22.279-8.143L1274.771,352.904L1274.771,352.904z"/>
	<path fill="#FFFFFF" d="M1363.887,425.735c-8.143,0-14.854-2.788-20.13-8.369c-5.279-5.578-7.917-12.627-7.917-21.148
		c0-8.441,2.562-15.474,7.69-21.091c5.126-5.616,11.686-8.426,19.678-8.426c8.217,0,14.759,2.658,19.621,7.973
		c4.862,5.315,7.295,12.762,7.295,22.336l-0.113,1.131h-43.54c0.149,5.43,1.96,9.803,5.429,13.119
		c3.468,3.318,7.613,4.977,12.439,4.977c6.634,0,11.836-3.316,15.606-9.952l9.273,4.522c-2.488,4.677-5.938,8.332-10.348,10.972
		C1374.461,424.415,1369.466,425.735,1363.887,425.735z M1347.263,389.546h31.778c-0.302-3.845-1.866-7.029-4.693-9.557
		c-2.827-2.524-6.615-3.788-11.365-3.788c-3.921,0-7.295,1.207-10.121,3.619C1350.033,382.233,1348.167,385.475,1347.263,389.546z"
		/>
	<path fill="#FFFFFF" d="M1425.409,423.926h-10.404l-22.393-55.415h11.309l16.285,42.976h0.228l16.512-42.976h11.083
		L1425.409,423.926z"/>
	<path fill="#FFFFFF" d="M1467.024,389.206v34.72h-10.404v-80.974h47.272v9.952h-36.869v26.576h33.25v9.726H1467.024z"/>
	<path fill="#FFFFFF" d="M1535.331,425.735c-8.143,0-14.854-2.788-20.13-8.369c-5.278-5.578-7.917-12.627-7.917-21.148
		c0-8.441,2.562-15.474,7.69-21.091c5.125-5.616,11.687-8.426,19.679-8.426c8.217,0,14.758,2.658,19.621,7.973
		c4.862,5.315,7.295,12.762,7.295,22.336l-0.113,1.131h-43.541c0.15,5.43,1.96,9.803,5.429,13.119
		c3.467,3.318,7.614,4.977,12.44,4.977c6.633,0,11.836-3.316,15.605-9.952l9.273,4.522c-2.487,4.677-5.938,8.332-10.349,10.972
		C1545.905,424.415,1540.91,425.735,1535.331,425.735z M1518.707,389.546h31.778c-0.303-3.845-1.865-7.029-4.693-9.557
		c-2.826-2.524-6.615-3.788-11.365-3.788c-3.921,0-7.295,1.207-10.121,3.619C1521.479,382.233,1519.612,385.475,1518.707,389.546z"
		/>
	<path fill="#FFFFFF" d="M1614.042,408.545c0,4.826-2.111,8.897-6.333,12.214c-4.224,3.317-9.538,4.978-15.946,4.978
		c-5.58,0-10.479-1.452-14.701-4.354c-4.225-2.9-7.237-6.729-9.048-11.479l9.273-3.958c1.355,3.317,3.336,5.899,5.938,7.747
		s5.446,2.771,8.538,2.771c3.316,0,6.088-0.716,8.312-2.148c2.223-1.432,3.336-3.128,3.336-5.09c0-3.543-2.714-6.144-8.144-7.803
		l-9.5-2.375c-10.781-2.715-16.172-7.917-16.172-15.606c0-5.051,2.053-9.104,6.164-12.157c4.107-3.055,9.367-4.58,15.775-4.58
		c4.899,0,9.33,1.17,13.289,3.506c3.958,2.338,6.729,5.468,8.312,9.387l-9.272,3.846c-1.058-2.336-2.771-4.165-5.146-5.484
		c-2.375-1.318-5.032-1.979-7.973-1.979c-2.715,0-5.146,0.68-7.295,2.036s-3.224,3.017-3.224,4.977c0,3.167,2.979,5.429,8.935,6.786
		l8.369,2.147C1608.538,394.635,1614.042,400.177,1614.042,408.545z"/>
	<path fill="#FFFFFF" d="M1644.463,424.83c-4.522,0-8.273-1.395-11.253-4.184s-4.506-6.674-4.58-11.648v-30.987h-9.726v-9.5h9.726
		v-16.964h10.404v16.964h13.571v9.5h-13.571v27.595c0,3.694,0.716,6.202,2.147,7.521c1.433,1.319,3.056,1.979,4.863,1.979
		c0.829,0,1.641-0.095,2.432-0.282c0.793-0.188,1.527-0.435,2.205-0.735l3.28,9.273
		C1651.249,424.339,1648.082,424.83,1644.463,424.83z"/>
</g>
<g enable-background="new    ">
	<path fill="#FFFFFF" d="M1265.782,544.964v-95.056h34.385c7.521,0,13.983,2.479,19.383,7.435c5.397,4.868,8.1,11.02,8.1,18.453
		c0,9.383-4.294,15.978-12.878,19.781v0.531c4.866,1.593,8.762,4.359,11.684,8.298c2.92,3.938,4.381,8.43,4.381,13.475
		c0,7.789-2.834,14.251-8.497,19.383c-5.489,5.135-12.26,7.7-20.312,7.7H1265.782z M1277.996,461.591v29.074h22.171
		c4.336,0,7.966-1.46,10.887-4.381c2.92-3.008,4.381-6.416,4.381-10.224c0-3.717-1.417-7.079-4.248-10.09
		c-2.834-2.921-6.329-4.381-10.487-4.381L1277.996,461.591L1277.996,461.591z M1277.996,502.083v31.198h24.561
		c4.426,0,8.187-1.548,11.284-4.646c3.009-3.098,4.515-6.771,4.515-11.02c0-4.159-1.549-7.787-4.646-10.887
		c-3.099-3.098-6.992-4.646-11.682-4.646H1277.996z"/>
	<path fill="#FFFFFF" d="M1367.21,477.787c9.027,0,16.15,2.413,21.374,7.234c5.222,4.825,7.833,11.44,7.833,19.849v40.094h-11.684
		v-9.026h-0.53c-5.045,7.435-11.772,11.15-20.18,11.15c-7.17,0-13.166-2.124-17.989-6.372c-4.824-4.249-7.234-9.559-7.234-15.932
		c0-6.726,2.543-12.081,7.633-16.063c5.089-3.982,11.884-5.975,20.38-5.975c7.256,0,13.229,1.328,17.922,3.982v-2.787
		c0-4.248-1.683-7.854-5.044-10.82c-3.364-2.964-7.303-4.447-11.815-4.447c-6.816,0-12.215,2.877-16.197,8.629l-10.754-6.771
		C1346.854,482.036,1355.614,477.787,1367.21,477.787z M1351.411,525.05c0,3.188,1.349,5.842,4.049,7.966
		c2.699,2.124,5.863,3.188,9.493,3.188c5.132,0,9.712-1.902,13.74-5.709c4.025-3.805,6.04-8.274,6.04-13.409
		c-3.807-3.008-9.116-4.514-15.932-4.514c-4.958,0-9.094,1.194-12.413,3.585C1353.071,518.545,1351.411,521.511,1351.411,525.05z"/>
	<path fill="#FFFFFF" d="M1467.045,479.912l-40.757,93.728h-12.612l15.135-32.791l-26.816-60.937h13.275l19.383,46.729h0.266
		l18.853-46.729H1467.045L1467.045,479.912z"/>
	<path fill="#FFFFFF" d="M1501.562,547.088c-9.56,0-17.438-3.272-23.632-9.824c-6.194-6.549-9.293-14.822-9.293-24.825
		c0-9.911,3.009-18.165,9.027-24.761c6.018-6.592,13.719-9.891,23.101-9.891c9.646,0,17.325,3.12,23.034,9.36
		c5.708,6.238,8.562,14.979,8.562,26.22l-0.134,1.327h-51.111c0.177,6.373,2.3,11.507,6.372,15.399
		c4.069,3.896,8.938,5.842,14.604,5.842c7.787,0,13.896-3.894,18.321-11.684l10.886,5.311c-2.92,5.489-6.97,9.781-12.146,12.879
		C1513.976,545.538,1508.11,547.088,1501.562,547.088z M1482.046,504.604h37.308c-0.355-4.514-2.191-8.251-5.511-11.218
		c-3.318-2.964-7.768-4.446-13.343-4.446c-4.604,0-8.562,1.417-11.882,4.248C1485.299,496.021,1483.108,499.825,1482.046,504.604z"
		/>
	<path fill="#FFFFFF" d="M1555.729,544.964h-12.215v-65.052h11.684v10.62h0.531c1.237-3.451,3.782-6.394,7.634-8.828
		c3.851-2.435,7.634-3.651,11.351-3.651c3.539,0,6.549,0.531,9.027,1.594l-3.717,11.815c-1.507-0.618-3.896-0.93-7.17-0.93
		c-4.603,0-8.607,1.857-12.015,5.576c-3.408,3.717-5.11,8.055-5.11,13.011V544.964z"/>
	<path fill="#FFFFFF" d="M1591.704,479.912h11.683v9.027h0.531c1.858-3.188,4.713-5.843,8.562-7.967
		c3.851-2.124,7.854-3.187,12.015-3.187c7.967,0,14.094,2.28,18.388,6.838c4.292,4.56,6.438,11.042,6.438,19.449v40.89h-12.213
		V504.87c-0.267-10.62-5.622-15.931-16.064-15.931c-4.869,0-8.939,1.971-12.214,5.906c-3.275,3.939-4.912,8.652-4.912,14.141v35.978
		h-12.214V479.912L1591.704,479.912z"/>
</g>
</svg>
